<svg width="185" height="56" viewBox="0 0 185 56" fill="none" xmlns="http://www.w3.org/2000/svg">
<path d="M11.8793 55.453C11.4013 55.453 10.9349 55.4474 10.4606 55.4376C9.47813 55.4259 8.49796 55.3478 7.52813 55.204C6.62381 55.0618 5.74776 54.7973 4.92889 54.4191C4.11753 54.0442 3.3775 53.5525 2.73716 52.9629C2.08754 52.3803 1.54671 51.7045 1.13609 50.9625C0.720949 50.2156 0.433645 49.415 0.284188 48.5886C0.122788 47.7006 0.0354637 46.8027 0.0229685 45.9027C0.0130218 45.6006 0 44.5947 0 44.5947V11.504C0 11.504 0.013869 10.5135 0.023047 10.2226C0.0350111 9.32394 0.121827 8.42747 0.282745 7.54088C0.432477 6.71223 0.720004 5.90933 1.13537 5.15998C1.54448 4.41841 2.08231 3.74217 2.72801 3.15746C3.37298 2.5672 4.11538 2.07298 4.92812 1.69281C5.74511 1.3159 6.6195 1.05325 7.52199 0.913634C8.49501 0.768333 9.47858 0.689777 10.4645 0.678623L11.8801 0.661133H173.112L174.545 0.679325C175.522 0.689924 176.496 0.76778 177.46 0.91223C178.372 1.05359 179.256 1.31808 180.082 1.69701C181.71 2.46316 183.035 3.67527 183.871 5.16347C184.279 5.90765 184.563 6.704 184.71 7.5255C184.873 8.41936 184.964 9.32288 184.983 10.2289C184.988 10.6345 184.988 11.0703 184.988 11.504C185 12.0411 185 12.5524 185 13.0679V43.0475C185 43.5679 185 44.0757 184.988 44.5877C184.988 45.0535 184.988 45.4803 184.981 45.9195C184.963 46.8093 184.874 47.6967 184.713 48.5745C184.567 49.4069 184.281 50.2137 183.866 50.9668C183.453 51.7008 182.915 52.3707 182.273 52.9517C181.632 53.5445 180.891 54.039 180.077 54.4164C179.253 54.7975 178.371 55.063 177.46 55.204C176.491 55.3486 175.51 55.4267 174.528 55.4376C174.068 55.4474 173.587 55.453 173.12 55.453L171.419 55.4558L11.8793 55.453Z" fill="#0029F2"/>
<path d="M41.1474 27.3905C41.1622 26.2435 41.4668 25.1188 42.033 24.1212C42.5993 23.1236 43.4086 22.2854 44.3858 21.6846C43.765 20.798 42.9461 20.0684 41.994 19.5537C41.0419 19.0389 39.9829 18.7533 38.9011 18.7195C36.5934 18.4772 34.3562 20.1003 33.1803 20.1003C31.9816 20.1003 30.1711 18.7435 28.2214 18.7836C26.9603 18.8244 25.7313 19.1911 24.654 19.8481C23.5768 20.505 22.6881 21.4298 22.0746 22.5323C19.4168 27.1338 21.3993 33.8965 23.9452 37.616C25.219 39.4373 26.7076 41.4718 28.6555 41.3996C30.5617 41.3206 31.2736 40.1842 33.5744 40.1842C35.854 40.1842 36.5219 41.3996 38.5093 41.3538C40.5547 41.3206 41.8433 39.5243 43.0724 37.6858C43.9876 36.388 44.6919 34.9537 45.1591 33.4359C43.9708 32.9334 42.9567 32.0921 42.2433 31.017C41.5299 29.942 41.1488 28.6807 41.1474 27.3905Z" fill="white"/>
<path d="M37.3936 16.2737C38.5089 14.9349 39.0583 13.2141 38.9252 11.4768C37.2214 11.6558 35.6476 12.4701 34.5173 13.7575C33.9647 14.3864 33.5414 15.1181 33.2717 15.9107C33.002 16.7033 32.8912 17.5413 32.9456 18.3768C33.7978 18.3856 34.6409 18.2009 35.4114 17.8366C36.1818 17.4723 36.8596 16.9379 37.3936 16.2737Z" fill="white"/>
<path d="M71.0242 36.7891H64.5194L62.9573 41.4016H60.2021L66.3634 24.3364H69.2259L75.3871 41.4016H72.5849L71.0242 36.7891ZM65.1931 34.6606H70.3492L67.8074 27.1748H67.7363L65.1931 34.6606Z" fill="white"/>
<path d="M88.6935 35.1817C88.6935 39.0481 86.6241 41.5321 83.5013 41.5321C82.7102 41.5735 81.9234 41.3913 81.2311 41.0063C80.5388 40.6214 79.9689 40.0492 79.5866 39.3554H79.5275V45.5179H76.9736V28.9601H79.4457V31.0295H79.4926C79.8925 30.339 80.472 29.7698 81.1696 29.3825C81.8672 28.9952 82.6568 28.8042 83.4543 28.8299C86.612 28.8299 88.6935 31.3261 88.6935 35.1817ZM86.0685 35.1817C86.0685 32.6628 84.7668 31.0067 82.7806 31.0067C80.8293 31.0067 79.5168 32.6976 79.5168 35.1817C79.5168 37.6886 80.8293 39.3675 82.7806 39.3675C84.7668 39.3675 86.0685 37.7235 86.0685 35.1817Z" fill="white"/>
<path d="M102.387 35.1817C102.387 39.0481 100.318 41.5321 97.1951 41.5321C96.404 41.5735 95.6173 41.3913 94.925 41.0063C94.2326 40.6213 93.6627 40.0492 93.2804 39.3554H93.2213V45.5179H90.6675V28.9601H93.1395V31.0295H93.1864C93.5863 30.339 94.1658 29.7698 94.8634 29.3825C95.561 28.9952 96.3506 28.8042 97.1481 28.8299C100.306 28.8299 102.387 31.3261 102.387 35.1817ZM99.7624 35.1817C99.7624 32.6627 98.4606 31.0067 96.4744 31.0067C94.5231 31.0067 93.2106 32.6976 93.2106 35.1817C93.2106 37.6886 94.5231 39.3675 96.4744 39.3675C98.4606 39.3675 99.7624 37.7235 99.7624 35.1817H99.7624Z" fill="white"/>
<path d="M111.438 36.6469C111.627 38.3392 113.271 39.4503 115.518 39.4503C117.67 39.4503 119.219 38.3392 119.219 36.8133C119.219 35.4887 118.285 34.6956 116.073 34.1521L113.862 33.6193C110.728 32.8624 109.273 31.3969 109.273 29.0188C109.273 26.0744 111.839 24.052 115.483 24.052C119.089 24.052 121.561 26.0744 121.644 29.0188H119.066C118.912 27.3158 117.504 26.2878 115.447 26.2878C113.389 26.2878 111.982 27.3279 111.982 28.8417C111.982 30.0482 112.881 30.7581 115.08 31.3015L116.96 31.7632C120.462 32.5912 121.916 33.9977 121.916 36.4938C121.916 39.6865 119.373 41.6861 115.328 41.6861C111.544 41.6861 108.989 39.7335 108.824 36.6468L111.438 36.6469Z" fill="white"/>
<path d="M127.428 26.0156V28.96H129.794V30.9824H127.428V37.8415C127.428 38.9071 127.901 39.4036 128.942 39.4036C129.222 39.3987 129.503 39.379 129.782 39.3445V41.3549C129.314 41.4422 128.839 41.4818 128.363 41.473C125.844 41.473 124.862 40.5268 124.862 38.1139V30.9824H123.053V28.96H124.862V26.0156H127.428Z" fill="white"/>
<path d="M131.164 35.182C131.164 31.2673 133.47 28.8074 137.065 28.8074C140.672 28.8074 142.967 31.2672 142.967 35.182C142.967 39.1074 140.684 41.5566 137.065 41.5566C133.447 41.5566 131.164 39.1074 131.164 35.182ZM140.365 35.182C140.365 32.4966 139.134 30.9117 137.065 30.9117C134.996 30.9117 133.766 32.5087 133.766 35.182C133.766 37.8781 134.996 39.4509 137.065 39.4509C139.134 39.4509 140.365 37.8781 140.365 35.182H140.365Z" fill="white"/>
<path d="M145.073 28.96H147.509V31.0777H147.568C147.732 30.4163 148.12 29.8318 148.665 29.4224C149.21 29.0131 149.879 28.8038 150.56 28.8298C150.855 28.8288 151.148 28.8607 151.435 28.9251V31.3139C151.064 31.2003 150.676 31.1482 150.288 31.1596C149.917 31.1445 149.547 31.2099 149.204 31.3513C148.86 31.4927 148.552 31.7067 148.299 31.9787C148.046 32.2506 147.855 32.574 147.739 32.9268C147.623 33.2795 147.585 33.6531 147.627 34.0221V41.4018H145.073L145.073 28.96Z" fill="white"/>
<path d="M163.211 37.7479C162.867 40.0065 160.667 41.5566 157.853 41.5566C154.234 41.5566 151.987 39.1315 151.987 35.241C151.987 31.3384 154.246 28.8074 157.746 28.8074C161.188 28.8074 163.353 31.172 163.353 34.9444V35.8194H154.565V35.9738C154.525 36.4316 154.582 36.8929 154.734 37.327C154.885 37.761 155.127 38.1579 155.444 38.4912C155.76 38.8245 156.144 39.0866 156.57 39.2602C156.995 39.4338 157.453 39.5148 157.912 39.4979C158.516 39.5544 159.121 39.4147 159.639 39.0994C160.157 38.7841 160.559 38.3101 160.786 37.7479L163.211 37.7479ZM154.577 34.0345H160.798C160.821 33.6228 160.758 33.2108 160.614 32.8244C160.47 32.4379 160.248 32.0854 159.962 31.7889C159.675 31.4924 159.33 31.2583 158.949 31.1013C158.568 30.9444 158.158 30.8679 157.746 30.8768C157.33 30.8743 156.918 30.9542 156.533 31.1119C156.148 31.2696 155.798 31.5019 155.504 31.7955C155.209 32.0891 154.976 32.4381 154.817 32.8224C154.658 33.2067 154.576 33.6187 154.577 34.0345V34.0345Z" fill="white"/>
<path d="M64.8725 11.4912C65.4079 11.4528 65.9452 11.5337 66.4455 11.7281C66.9459 11.9224 67.3969 12.2254 67.766 12.6152C68.1351 13.0049 68.4131 13.4718 68.5799 13.982C68.7468 14.4922 68.7983 15.0331 68.7308 15.5656C68.7308 18.1852 67.315 19.691 64.8725 19.691H61.9106V11.4912H64.8725ZM63.1842 18.5314H64.7302C65.1128 18.5543 65.4957 18.4915 65.851 18.3478C66.2063 18.204 66.525 17.9828 66.7841 17.7003C67.0431 17.4179 67.2359 17.0812 67.3484 16.7148C67.4609 16.3484 67.4903 15.9615 67.4344 15.5823C67.4862 15.2046 67.4538 14.8202 67.3396 14.4565C67.2254 14.0927 67.0321 13.7588 66.7737 13.4786C66.5153 13.1983 66.198 12.9787 65.8447 12.8355C65.4914 12.6922 65.1109 12.6289 64.7302 12.65H63.1842V18.5314Z" fill="white"/>
<path d="M70.1696 16.5943C70.1307 16.1876 70.1772 15.7773 70.3061 15.3897C70.4351 15.002 70.6436 14.6457 70.9184 14.3433C71.1932 14.041 71.5281 13.7995 71.9017 13.6342C72.2753 13.4689 72.6793 13.3835 73.0878 13.3835C73.4963 13.3835 73.9003 13.4689 74.2739 13.6342C74.6475 13.7995 74.9824 14.041 75.2572 14.3433C75.5319 14.6457 75.7405 15.002 75.8694 15.3897C75.9984 15.7773 76.0449 16.1876 76.006 16.5943C76.0456 17.0013 75.9997 17.4122 75.8711 17.8005C75.7424 18.1887 75.534 18.5458 75.2592 18.8487C74.9844 19.1516 74.6492 19.3936 74.2752 19.5593C73.9013 19.7249 73.4968 19.8105 73.0878 19.8105C72.6788 19.8105 72.2743 19.7249 71.9003 19.5593C71.5264 19.3936 71.1912 19.1516 70.9164 18.8487C70.6415 18.5458 70.4331 18.1887 70.3045 17.8005C70.1759 17.4122 70.1299 17.0013 70.1696 16.5943ZM74.7499 16.5943C74.7499 15.2529 74.1473 14.4685 73.0898 14.4685C72.0283 14.4685 71.4311 15.2529 71.4311 16.5943C71.4311 17.9464 72.0283 18.7247 73.0898 18.7247C74.1473 18.7247 74.7499 17.941 74.7499 16.5943H74.7499Z" fill="white"/>
<path d="M83.7642 19.6912H82.4973L81.2184 15.1337H81.1218L79.8482 19.6912H78.5934L76.8877 13.5032H78.1264L79.2349 18.225H79.3262L80.5984 13.5032H81.77L83.0422 18.225H83.1388L84.242 13.5032H85.4632L83.7642 19.6912Z" fill="white"/>
<path d="M86.8975 13.5035H88.0731V14.4865H88.1643C88.3191 14.1334 88.5803 13.8375 88.9113 13.6398C89.2423 13.4422 89.6267 13.3528 90.011 13.384C90.312 13.3614 90.6144 13.4068 90.8955 13.5169C91.1767 13.6269 91.4295 13.7988 91.6352 14.0199C91.8409 14.2409 91.9942 14.5054 92.0838 14.7937C92.1734 15.0821 92.197 15.3869 92.1528 15.6856V19.6915H90.9316V15.9923C90.9316 14.9978 90.4995 14.5033 89.5963 14.5033C89.3918 14.4938 89.1878 14.5285 88.998 14.6053C88.8083 14.682 88.6374 14.7988 88.4971 14.9478C88.3568 15.0967 88.2503 15.2743 88.185 15.4682C88.1196 15.6621 88.097 15.8679 88.1187 16.0714V19.6915H86.8975L86.8975 13.5035Z" fill="white"/>
<path d="M94.0991 11.0874H95.3204V19.6911H94.0991V11.0874Z" fill="white"/>
<path d="M97.0182 16.5944C96.9793 16.1877 97.0258 15.7774 97.1548 15.3897C97.2838 15.0021 97.4924 14.6457 97.7672 14.3434C98.042 14.041 98.3769 13.7995 98.7505 13.6342C99.1242 13.4689 99.5282 13.3835 99.9367 13.3835C100.345 13.3835 100.749 13.4689 101.123 13.6342C101.497 13.7995 101.831 14.041 102.106 14.3434C102.381 14.6457 102.59 15.0021 102.719 15.3897C102.848 15.7774 102.894 16.1877 102.855 16.5944C102.895 17.0015 102.849 17.4123 102.72 17.8006C102.592 18.1888 102.383 18.5459 102.108 18.8488C101.833 19.1517 101.498 19.3937 101.124 19.5593C100.75 19.725 100.346 19.8105 99.9367 19.8105C99.5277 19.8105 99.1232 19.725 98.7492 19.5593C98.3753 19.3937 98.0401 19.1517 97.7652 18.8488C97.4904 18.5459 97.2819 18.1888 97.1532 17.8006C97.0246 17.4123 96.9786 17.0015 97.0182 16.5944ZM101.598 16.5944C101.598 15.253 100.996 14.4686 99.9384 14.4686C98.8769 14.4686 98.2797 15.253 98.2797 16.5944C98.2797 17.9465 98.8769 18.7248 99.9384 18.7248C100.996 18.7248 101.598 17.9411 101.598 16.5944H101.598Z" fill="white"/>
<path d="M104.141 17.941C104.141 16.8272 104.97 16.185 106.442 16.0937L108.118 15.9971V15.463C108.118 14.8094 107.686 14.4404 106.852 14.4404C106.17 14.4404 105.697 14.6907 105.562 15.1282H104.38C104.504 14.0653 105.504 13.3835 106.908 13.3835C108.459 13.3835 109.334 14.1559 109.334 15.463V19.691H108.159V18.8214H108.062C107.866 19.1333 107.59 19.3876 107.264 19.5583C106.937 19.729 106.571 19.81 106.203 19.793C105.944 19.82 105.681 19.7923 105.433 19.7116C105.184 19.631 104.955 19.4991 104.761 19.3247C104.567 19.1502 104.411 18.9369 104.304 18.6986C104.197 18.4603 104.142 18.2022 104.141 17.941ZM108.118 17.4123V16.8949L106.607 16.9916C105.755 17.0486 105.369 17.3385 105.369 17.884C105.369 18.4409 105.852 18.765 106.516 18.765C106.711 18.7847 106.907 18.7651 107.094 18.7072C107.281 18.6494 107.454 18.5545 107.604 18.4283C107.753 18.3021 107.876 18.1471 107.964 17.9726C108.053 17.798 108.105 17.6075 108.118 17.4123Z" fill="white"/>
<path d="M110.939 16.5944C110.939 14.6391 111.945 13.4004 113.508 13.4004C113.895 13.3826 114.279 13.4752 114.615 13.6674C114.951 13.8597 115.225 14.1436 115.406 14.486H115.497V11.0874H116.718V19.6911H115.548V18.7134H115.451C115.257 19.0535 114.973 19.3339 114.63 19.5242C114.288 19.7145 113.9 19.8075 113.508 19.7931C111.934 19.7931 110.939 18.5544 110.939 16.5944ZM112.201 16.5944C112.201 17.9069 112.82 18.6967 113.854 18.6967C114.884 18.6967 115.52 17.8955 115.52 16.5998C115.52 15.3101 114.877 14.4975 113.854 14.4975C112.826 14.4975 112.201 15.2926 112.201 16.5944H112.201Z" fill="white"/>
<path d="M121.771 16.5943C121.732 16.1876 121.778 15.7773 121.907 15.3897C122.036 15.002 122.245 14.6457 122.519 14.3433C122.794 14.041 123.129 13.7995 123.503 13.6342C123.876 13.4689 124.28 13.3835 124.689 13.3835C125.097 13.3835 125.501 13.4689 125.875 13.6342C126.249 13.7995 126.583 14.041 126.858 14.3433C127.133 14.6457 127.342 15.002 127.471 15.3897C127.599 15.7773 127.646 16.1876 127.607 16.5943C127.647 17.0013 127.601 17.4122 127.472 17.8005C127.344 18.1887 127.135 18.5458 126.86 18.8487C126.585 19.1516 126.25 19.3936 125.876 19.5593C125.502 19.7249 125.098 19.8105 124.689 19.8105C124.28 19.8105 123.875 19.7249 123.501 19.5593C123.127 19.3936 122.792 19.1516 122.517 18.8487C122.243 18.5458 122.034 18.1887 121.906 17.8005C121.777 17.4122 121.731 17.0013 121.771 16.5943ZM126.351 16.5943C126.351 15.2529 125.748 14.4685 124.691 14.4685C123.629 14.4685 123.032 15.2529 123.032 16.5943C123.032 17.9464 123.629 18.7247 124.691 18.7247C125.748 18.7247 126.351 17.941 126.351 16.5943Z" fill="white"/>
<path d="M129.246 13.5035H130.421V14.4865H130.512C130.667 14.1334 130.928 13.8375 131.259 13.6398C131.59 13.4422 131.975 13.3528 132.359 13.384C132.66 13.3614 132.963 13.4068 133.244 13.5169C133.525 13.6269 133.778 13.7988 133.983 14.0199C134.189 14.2409 134.342 14.5054 134.432 14.7937C134.522 15.0821 134.545 15.3869 134.501 15.6856V19.6915H133.28V15.9923C133.28 14.9978 132.848 14.5033 131.944 14.5033C131.74 14.4938 131.536 14.5285 131.346 14.6053C131.156 14.682 130.986 14.7988 130.845 14.9478C130.705 15.0967 130.598 15.2743 130.533 15.4682C130.468 15.6621 130.445 15.8679 130.467 16.0714V19.6915H129.246V13.5035Z" fill="white"/>
<path d="M141.402 11.9619V13.5307H142.742V14.5594H141.402V17.7413C141.402 18.3895 141.669 18.6734 142.277 18.6734C142.432 18.6729 142.588 18.6634 142.742 18.6452V19.6624C142.523 19.7016 142.301 19.7225 142.078 19.7248C140.72 19.7248 140.179 19.2471 140.179 18.054V14.5593H139.197V13.5307H140.179V11.9619H141.402Z" fill="white"/>
<path d="M144.411 11.0874H145.621V14.4975H145.718C145.88 14.1411 146.148 13.8435 146.486 13.6451C146.824 13.4467 147.214 13.3573 147.605 13.389C147.904 13.3727 148.204 13.4227 148.482 13.5354C148.759 13.6482 149.009 13.8209 149.213 14.0412C149.416 14.2616 149.569 14.5241 149.659 14.8101C149.749 15.0962 149.776 15.3986 149.736 15.6959V19.6911H148.513V15.9972C148.513 15.0088 148.053 14.5082 147.19 14.5082C146.98 14.491 146.769 14.5198 146.571 14.5927C146.374 14.6657 146.195 14.7809 146.046 14.9303C145.898 15.0797 145.784 15.2598 145.712 15.4578C145.641 15.6559 145.613 15.8672 145.632 16.077V19.6911H144.411L144.411 11.0874Z" fill="white"/>
<path d="M156.856 18.0203C156.69 18.5859 156.331 19.0751 155.841 19.4023C155.351 19.7296 154.761 19.8741 154.175 19.8106C153.767 19.8213 153.362 19.7432 152.988 19.5817C152.613 19.4202 152.278 19.1792 152.006 18.8753C151.734 18.5714 151.532 18.2119 151.413 17.8219C151.294 17.4319 151.261 17.0206 151.316 16.6166C151.262 16.2113 151.296 15.7992 151.414 15.408C151.533 15.0168 151.735 14.6556 152.005 14.3491C152.276 14.0425 152.609 13.7977 152.982 13.6311C153.356 13.4646 153.761 13.3802 154.17 13.3836C155.891 13.3836 156.93 14.56 156.93 16.5031V16.9293H152.56V16.9977C152.541 17.2248 152.57 17.4534 152.644 17.6688C152.719 17.8842 152.837 18.0817 152.992 18.2486C153.148 18.4155 153.336 18.5481 153.545 18.638C153.755 18.7279 153.981 18.773 154.208 18.7705C154.501 18.8055 154.797 18.7529 155.059 18.6194C155.321 18.4858 155.537 18.2772 155.681 18.0203L156.856 18.0203ZM152.56 16.0261H155.686C155.701 15.8184 155.673 15.6098 155.603 15.4137C155.533 15.2175 155.423 15.0382 155.279 14.8873C155.136 14.7363 154.962 14.617 154.77 14.5371C154.578 14.4571 154.371 14.4183 154.163 14.423C153.952 14.4204 153.742 14.46 153.546 14.5397C153.351 14.6193 153.173 14.7373 153.024 14.8867C152.874 15.0361 152.756 15.2139 152.677 15.4096C152.597 15.6052 152.558 15.8149 152.56 16.0261H152.56Z" fill="white"/>
</svg>
