<svg width="185" height="56" viewBox="0 0 185 56" fill="none" xmlns="http://www.w3.org/2000/svg">
<path fill-rule="evenodd" clip-rule="evenodd" d="M7.49889 0.455811H177.501C181.621 0.455811 185 3.83443 185 7.9547V47.7565C185 51.8767 181.621 55.2554 177.501 55.2554H7.49889C3.37862 55.2554 0 51.8767 0 47.7565V7.9547C0 3.83443 3.37862 0.455811 7.49889 0.455811Z" fill="#0029F2"/>
<path fill-rule="evenodd" clip-rule="evenodd" d="M66.8308 30.5339H58.1783V33.0885H64.3587C64.0291 36.7143 61.0625 38.1976 58.2607 38.1976C54.6348 38.1976 51.5034 35.3134 51.5034 31.358C51.5034 27.4849 54.5524 24.4359 58.2607 24.4359C61.1449 24.4359 62.8754 26.3312 62.8754 26.3312L64.6883 24.4359C64.6883 24.4359 62.3809 21.8813 58.1783 21.8813C52.8219 21.8813 48.7017 26.4136 48.7017 31.2756C48.7017 36.0551 52.5747 40.7522 58.3431 40.7522C63.3698 40.7522 67.0781 37.2911 67.0781 32.182C66.9956 31.1107 66.8308 30.5339 66.8308 30.5339Z" fill="white"/>
<path fill-rule="evenodd" clip-rule="evenodd" d="M74.2474 31.0284C75.9779 31.0284 77.626 32.4293 77.626 34.7367C77.626 36.9616 75.9779 38.4449 74.2474 38.4449C72.3521 38.4449 70.7864 36.8792 70.7864 34.7367C70.7864 32.5941 72.2697 31.0284 74.2474 31.0284ZM74.2474 28.6387C70.704 28.6387 68.1494 31.4405 68.1494 34.6543C68.1494 37.9505 70.6216 40.7523 74.3298 40.7523C77.626 40.7523 80.3454 38.1977 80.3454 34.7367C80.263 30.6988 77.1316 28.6387 74.2474 28.6387Z" fill="white"/>
<path fill-rule="evenodd" clip-rule="evenodd" d="M87.6789 31.0284C89.4094 31.0284 91.0576 32.4293 91.0576 34.7367C91.0576 36.9616 89.4094 38.4449 87.6789 38.4449C85.7836 38.4449 84.2179 36.8792 84.2179 34.7367C84.2179 32.5941 85.7012 31.0284 87.6789 31.0284ZM87.5965 28.6387C84.0531 28.6387 81.4985 31.4405 81.4985 34.6543C81.4985 37.9505 83.9707 40.7523 87.6789 40.7523C90.9752 40.7523 93.6945 38.1977 93.6945 34.7367C93.6945 30.6988 90.5631 28.6387 87.5965 28.6387Z" fill="white"/>
<path fill-rule="evenodd" clip-rule="evenodd" d="M100.947 31.0284C102.512 31.0284 104.161 32.4293 104.161 34.7367C104.161 37.1264 102.512 38.4449 100.864 38.4449C99.1338 38.4449 97.4857 37.044 97.4857 34.8191C97.5681 32.4293 99.2986 31.0284 100.947 31.0284ZM100.782 28.6387C97.4857 28.6387 94.9312 31.5229 94.9312 34.7367C94.9312 38.3625 97.8978 40.8347 100.7 40.8347C102.43 40.8347 103.337 40.1754 103.996 39.3514V40.5874C103.996 42.6476 102.76 43.9661 100.782 43.9661C98.969 43.9661 97.9802 42.5652 97.6505 41.8235L95.3432 42.8124C96.1672 44.5429 97.8153 46.3558 100.782 46.3558C103.996 46.3558 106.468 44.2957 106.468 40.0106V28.9683H103.913V29.9572C103.254 29.2155 102.183 28.6387 100.782 28.6387Z" fill="white"/>
<path fill-rule="evenodd" clip-rule="evenodd" d="M118.499 30.946C119.57 30.946 120.394 31.5229 120.724 32.2645L115.285 34.5719C115.12 32.7589 116.768 30.946 118.499 30.946ZM118.416 28.6387C115.367 28.6387 112.73 31.1108 112.73 34.7367C112.73 38.5273 115.615 40.8347 118.664 40.8347C121.218 40.8347 122.784 39.4338 123.773 38.1977L121.713 36.7968C121.136 37.6209 120.229 38.4449 118.746 38.4449C117.016 38.4449 116.274 37.5385 115.779 36.632L123.938 33.2534L123.526 32.2645C122.702 30.2868 120.806 28.6387 118.416 28.6387Z" fill="white"/>
<path d="M111.247 22.5403H108.61V40.4222H111.247V22.5403Z" fill="white"/>
<path d="M147.094 22.5403H144.457V40.4222H147.094V22.5403Z" fill="white"/>
<path d="M132.92 22.5403H130.283V40.4222H132.92V22.5403Z" fill="white"/>
<path fill-rule="evenodd" clip-rule="evenodd" d="M130.283 22.5403H136.711C139.842 22.5403 142.397 25.0948 142.397 28.2263C142.397 31.3577 139.842 33.9122 136.711 33.9122H130.283V22.5403ZM132.92 25.1773V31.1928H136.711C138.359 31.1928 139.76 29.792 139.76 28.1438C139.76 26.4957 138.359 25.0948 136.711 25.0948H132.92V25.1773Z" fill="white"/>
<path fill-rule="evenodd" clip-rule="evenodd" d="M166.871 46.2734L174.617 28.6387H171.65L163.904 46.2734H166.871Z" fill="white"/>
<path fill-rule="evenodd" clip-rule="evenodd" d="M167.695 42.2356L161.762 28.6387H164.646L168.766 38.0329H167.695V42.2356Z" fill="white"/>
<path fill-rule="evenodd" clip-rule="evenodd" d="M158.053 40.4224H160.69V33.9948C161.102 27.3199 152.697 25.8366 149.483 30.6162L151.625 32.0994C153.191 29.3801 157.641 30.0393 157.888 32.9235C156.57 32.5939 155.086 32.3467 153.768 32.4291C151.708 32.6763 149.977 33.9124 149.648 36.0549C149.483 37.2086 149.73 38.6095 150.554 39.5159C151.79 40.8344 153.85 41.0816 155.581 40.5872C156.57 40.34 157.311 39.7631 157.888 39.0215V40.4224H158.053ZM158.053 35.2308C157.723 36.7141 156.57 37.7854 155.086 38.1974C152.037 39.0215 151.213 33.9948 155.828 34.7364C156.57 34.8188 157.311 34.9836 158.053 35.2308Z" fill="white"/>
<path fill-rule="evenodd" clip-rule="evenodd" d="M57.4362 11.6625H53.4808V12.8162H56.2825C56.1177 14.4643 54.7993 15.1235 53.4808 15.1235C51.8327 15.1235 50.4318 13.805 50.4318 11.9921C50.4318 10.2616 51.8327 8.86071 53.4808 8.86071C54.7993 8.86071 55.6233 9.68476 55.6233 9.68476L56.4474 8.86071C56.4474 8.86071 55.3761 7.70703 53.4808 7.70703C51.0086 7.70703 49.1133 9.76716 49.1133 11.9921C49.1133 14.1346 50.9262 16.2772 53.4808 16.2772C55.7881 16.2772 57.4362 14.7115 57.4362 12.4041C57.5186 11.9097 57.4362 11.6625 57.4362 11.6625Z" fill="white"/>
<path d="M74.8245 8.03735H73.5884V16.1955H74.8245V8.03735Z" fill="white"/>
<path fill-rule="evenodd" clip-rule="evenodd" d="M66.7482 16.1955H67.9843V9.27343H69.962V8.03735C68.2315 8.03735 66.501 8.03735 64.7705 8.03735V9.27343H66.7482V16.1955Z" fill="white"/>
<path fill-rule="evenodd" clip-rule="evenodd" d="M58.8374 16.1955H63.5345V14.9594H60.0735V12.7345H63.1225V11.4984H60.0735V9.27343H63.5345V8.03735H58.8374C58.8374 10.7567 58.8374 13.4761 58.8374 16.1955Z" fill="white"/>
<path fill-rule="evenodd" clip-rule="evenodd" d="M77.7907 16.1955H79.0268V9.27343H81.0045V8.03735C79.274 8.03735 77.5435 8.03735 75.813 8.03735V9.27343H77.7907V16.1955Z" fill="white"/>
<path fill-rule="evenodd" clip-rule="evenodd" d="M88.4207 15.1235C86.7726 15.1235 85.3717 13.805 85.3717 11.9921C85.3717 10.2616 86.6902 8.86071 88.4207 8.86071C90.1512 8.86071 91.4697 10.2616 91.4697 11.9921C91.4697 13.8874 90.0688 15.1235 88.4207 15.1235ZM88.4207 7.70703C85.9485 7.70703 84.0532 9.76716 84.0532 11.9921C84.0532 14.1346 85.7837 16.2772 88.4207 16.2772C90.9753 16.2772 92.7882 14.1346 92.7882 11.9921C92.7882 9.76716 90.8929 7.70703 88.4207 7.70703Z" fill="white"/>
<path fill-rule="evenodd" clip-rule="evenodd" d="M93.9424 16.1955H95.1785V10.2623L99.0515 16.1955H100.288V8.03735H99.0515V13.9705L95.1785 8.03735H93.9424V16.1955Z" fill="white"/>
<path fill-rule="evenodd" clip-rule="evenodd" d="M17.1404 45.4492C17.2228 45.3668 17.3877 45.3668 17.4701 45.2844L34.1983 36.1374L30.2429 32.1819L17.1404 45.4492ZM34.94 35.7254L30.8197 31.6051L34.94 27.4024L40.626 30.5338C42.0269 31.2755 41.2852 32.2643 40.626 32.594L34.94 35.7254ZM34.1983 26.9904L17.4701 17.9258C17.3053 17.8434 17.058 17.761 16.8932 17.761L30.2429 31.0282L34.1983 26.9904ZM15.9044 17.9258L29.6661 31.6875L15.9868 45.4492C15.5747 45.202 15.4099 44.6251 15.4099 43.9659C15.4099 42.565 15.3275 21.0572 15.2451 19.4091C15.2451 18.585 15.5747 18.0906 15.9044 17.9258Z" fill="white"/>
</svg>
