<svg width="161" height="161" viewBox="0 0 161 161" fill="none" xmlns="http://www.w3.org/2000/svg">
    <rect x="0.625" y="0.828125" width="159.75" height="159.75" rx="34.7283" fill="#0029F2"/>
    <path d="M101.897 85.078L101.683 85.9406C110.017 88.023 115.289 94.9137 115.289 104.318C115.289 121.84 99.564 131.53 84.5602 131.53C69.5564 131.53 59.0492 122.268 59.0492 108.483C59.0492 101.592 62.9643 84.7209 58.5424 75.9601C73.3456 66.485 82.4717 71.6437 82.4717 82.4936C82.4717 92.4742 79.7914 101.026 79.7914 106.69C79.7914 110.565 81.7472 114.083 86.4582 114.083C91.3869 114.083 93.9959 108.914 93.9959 103.974C93.9959 98.0878 90.0093 88.4745 86.7473 84.8051C89.8665 81.9343 98.0538 75.0335 98.0538 64.8474C98.0538 56.5887 91.3869 49.8429 82.1111 49.8429C61.4541 49.8429 50.5116 72.8871 56.6002 84.95C45.5829 90.8366 34.1335 87.0324 34.1335 73.8912C34.1335 52.7845 54.1341 30.458 81.3866 30.458C101.17 30.458 119 41.7998 119 63.6984C119 71.3809 114.578 81.503 108.418 87.1739C106.248 85.7958 103.132 85.078 101.897 85.078Z" fill="white"/>
</svg>
