<svg xmlns="http://www.w3.org/2000/svg" viewBox="0 0 571.35 574.8"><defs><style>.cls-1{fill:#fff;}.cls-1,.cls-2{stroke:#0028f2;}.cls-1,.cls-2,.cls-3{stroke-linecap:round;stroke-linejoin:round;stroke-width:9px;}.cls-2,.cls-3{fill:none;}.cls-3{stroke:#ff7846;}</style></defs><g id="Layer_2" data-name="Layer 2"><g id="Layer_1-2" data-name="Layer 1"><path class="cls-1" d="M15.43,227.44s88-11.67,88-54.1c0-48.5,45.61-51.22,45.61-98,0-17.53-9.33-24.43-9.33-43.89C139.69,18.64,150.12,4.5,166,4.5c16.22,0,46.56,11.25,46.56,50.31,0,29.43-17.91,43.35-17.91,64,0,16.2,15.22,27.29,39.1,27.29,37.62,0,164.5-52.45,174-10.57"></path><line class="cls-1" x1="272.74" y1="166.07" x2="276.13" y2="200.9"></line><path class="cls-1" d="M276.13,182S372.34,134.9,403,134.9c26.56,0,15.49,47.14-31.7,62.35"></path><path class="cls-1" d="M268,226.21c38.27,0,57.24-90.39,92.21-90.39,15.32,0,21.9,10.14,21.9,24.92,0,31.15-56.13,149.8-186.6,149.8-80.13,0-73.74-68.46-66.74-92.16"></path><line class="cls-1" x1="135.32" y1="295.24" x2="29.58" y2="339.01"></line><polygon class="cls-2" points="141.4 340.57 185.13 348.57 202.47 366.59 427.72 326.4 375.01 315.57 365.64 304.19 141.4 340.57"></polygon><polyline class="cls-2" points="427.72 326.4 436.34 521.83 206.13 570.3 128.76 537.98 141.4 340.57"></polyline><line class="cls-2" x1="185.13" y1="348.57" x2="179.35" y2="525.64"></line><polyline class="cls-2" points="128.76 537.98 179.35 525.64 206.13 570.3 202.47 366.59"></polyline><path class="cls-2" d="M339.17,245.72c10.64,19.87,14.71,54.75,14.71,93.29"></path><path class="cls-2" d="M246.08,357.66c0-102.43,16.8-145.82,47.4-145.82"></path><path class="cls-2" d="M317.65,266.7c.14,11.95.06,26.4.06,43.84"></path><path class="cls-2" d="M204.35,330.36c0-102.43,54.16-118.11,84.76-118.11"></path><line class="cls-3" x1="452.6" y1="397.21" x2="551.78" y2="353.32"></line><line class="cls-3" x1="458.94" y1="413.77" x2="566.85" y2="402.87"></line><line class="cls-3" x1="114.7" y1="450.58" x2="7.35" y2="466.02"></line><line class="cls-3" x1="111.34" y1="434.22" x2="4.5" y2="415.54"></line></g></g></svg>