<svg xmlns="http://www.w3.org/2000/svg" viewBox="0 0 502.51 474.43"><defs><style>.cls-1,.cls-2{fill:none;stroke-linecap:round;stroke-linejoin:round;}.cls-1{stroke:#0028f2;stroke-width:7.56px;}.cls-2{stroke:#ff7846;stroke-width:9px;}</style></defs><g id="Layer_2" data-name="Layer 2"><g id="Layer_1-2" data-name="Layer 1"><path class="cls-1" d="M379.71,202.39c44.44,15.49,84.38-1.95,84.38-37.41,0-21.28-10-44.74-49-44.74-38.12,0-45.3,22.32-45.3,22.32"></path><path class="cls-1" d="M346.57,127.38s26.42,30.91,75.82,15.84"></path><path class="cls-1" d="M374.88,266.49C431.46,284,475.56,243.08,448,197.33"></path><path class="cls-1" d="M242.89,234.84C256.36,280,318,314.93,371.27,314.93c31.37,0,64.22-13.34,60.89-51.59"></path><path class="cls-1" d="M232.71,152.71s-1.48-11.1-10.79-11.1c-23.89,0-17.79,90.3-17.79,168.18S204,470.66,204,470.66L62.84,428.9s-18.13-318,16.74-318l142.34,30.71"></path><polyline class="cls-1" points="232.71 264.68 232.71 423.24 204.1 415.06"></polyline><path class="cls-1" d="M210.1,153.71C237.15,153.62,253,150,253,150c5.42-29.2,35.21-58.26,59.53-58.26,25.12-28.22-6.82-87.94,37-87.94,21.46,0,38.14,21.36,38.07,47.6-.09,36.16-24.93,73.79-29.59,85.29"></path><path class="cls-1" d="M28.19,105.88a440.57,440.57,0,0,0,40,18.78"></path><path class="cls-1" d="M203.68,262a300.12,300.12,0,0,0,52.91,2.37"></path><path class="cls-1" d="M3.78,197.5c12.36,6.33,31.42,15.21,54.54,24.43"></path><line class="cls-1" x1="203.68" y1="446.57" x2="61.54" y2="406.06"></line><line class="cls-1" x1="232.71" y1="398.93" x2="204.12" y2="390.57"></line><line class="cls-2" x1="409.16" y1="42" x2="489.09" y2="7.6"></line><line class="cls-2" x1="498.01" y1="68.2" x2="414.45" y2="68.43"></line><line class="cls-2" x1="290.02" y1="47.94" x2="203.42" y2="39.45"></line><line class="cls-2" x1="205.57" y1="87.33" x2="287.43" y2="70.55"></line></g></g></svg>