<svg xmlns="http://www.w3.org/2000/svg" viewBox="0 0 600.71 538.41"><defs><style>.cls-1,.cls-3{fill:none;}.cls-1,.cls-2{stroke:#0028f2;}.cls-1,.cls-2,.cls-3{stroke-linecap:round;stroke-linejoin:round;stroke-width:9px;}.cls-2{fill:#fff;}.cls-3{stroke:#ff7846;}</style></defs><g id="Layer_2" data-name="Layer 2"><g id="Layer_1-2" data-name="Layer 1"><line class="cls-1" x1="547.16" y1="388.66" x2="596.21" y2="370"></line><line class="cls-1" x1="546.28" y1="267.62" x2="596.21" y2="248.62"></line><path class="cls-2" d="M143,236.63c-31.55-19.72-55.3-87.69-22.84-127.45"></path><path class="cls-2" d="M103.59,142.62C77.26,132.43,4.5,108.76,4.5,108.76"></path><path class="cls-2" d="M178.28,217.1c-6.79-4.54-17.05-4.35-23.25-.28-11.32,7.45-21.49,30.86,1.74,64.7s75.48,51.84,100.51,2.53"></path><path class="cls-2" d="M298.66,252.08c-18,41.26-64.45,55.28-107.32.9-27.45-34.83-23.59-70-3.72-80.1,20.27-10.27,34.41,11,39.17,22.4,8.25,19.69,21.58,33.94,30.36,33.94,7.51,0,8.56-5.3,8.56-5.3"></path><path class="cls-2" d="M71.49,24.16C136,78.9,228.18,99.73,275.35,70.9c40.21-24.58,62-82.74,96.92-62,25.31,15,28.26,57.71-12,85.33-49.84,34.21-63.4,38.09-63.05,53.47.6,25.8,104.36,89.08,109.66,191.15,1.19,23-16.22,39.7-35,39.32-29.15-.59-36.11-37.83-49.55-82-21-68.82-58.67-77-58.67-77"></path><path class="cls-2" d="M318,407c18.34-6.52,28.61-22.72,28.61-51.65s-19.8-53-39.37-50.52c-6.59.82-19.43,6.93-23.07,8.28-17.25,6.1-29.54,24.43-29.54,51.33,0,28.92,16,52.37,35.71,52.37a24.33,24.33,0,0,0,5-.52Z"></path><path class="cls-2" d="M295.28,416.27c15.31-4.55,27.17-22.69,27.17-51.61s-19.81-53-39.38-50.52"></path><ellipse class="cls-2" cx="287.86" cy="365.03" rx="13.49" ry="20.09"></ellipse><path class="cls-2" d="M520.23,330.22c18.34-6.52,28.61-22.73,28.61-51.66S529,225.61,509.46,228.05c-6.58.82-19.42,6.92-23.06,8.27-17.25,6.11-29.54,24.43-29.54,51.33,0,28.93,16,52.38,35.71,52.38a25,25,0,0,0,5-.52Z"></path><path class="cls-2" d="M497.51,339.47c15.31-4.55,27.16-22.68,27.16-51.61s-19.8-53-39.37-50.51"></path><ellipse class="cls-2" cx="490.09" cy="288.24" rx="13.49" ry="20.09"></ellipse><path class="cls-2" d="M520.23,452.78c18.34-6.52,28.61-22.73,28.61-51.66S529,348.17,509.46,350.61c-6.58.82-19.42,6.92-23.06,8.27-17.25,6.11-29.54,24.44-29.54,51.33,0,28.93,16,52.38,35.71,52.38a25,25,0,0,0,5-.52Z"></path><path class="cls-2" d="M497.51,462c15.31-4.55,27.16-22.68,27.16-51.61s-19.8-52.95-39.37-50.51"></path><ellipse class="cls-2" cx="490.09" cy="410.8" rx="13.49" ry="20.09"></ellipse><path class="cls-2" d="M476.24,470.19c18.33-6.52,28.61-22.73,28.61-51.65S485,365.58,465.47,368c-6.59.82-19.42,6.93-23.06,8.28-17.26,6.1-29.55,24.43-29.55,51.33,0,28.92,16,52.37,35.71,52.37a24.35,24.35,0,0,0,5-.52Z"></path><path class="cls-2" d="M453.51,479.45c15.31-4.55,27.17-22.69,27.17-51.61s-19.81-53-39.38-50.52"></path><ellipse class="cls-2" cx="446.09" cy="428.21" rx="13.49" ry="20.09"></ellipse><path class="cls-2" d="M432.24,487.61c18.34-6.52,28.61-22.73,28.61-51.66s-19.8-52.95-39.37-50.51c-6.59.82-19.43,6.92-23.07,8.27-17.25,6.11-29.54,24.43-29.54,51.33,0,28.93,16,52.38,35.71,52.38a25,25,0,0,0,5-.52Z"></path><path class="cls-2" d="M409.52,496.86c15.31-4.55,27.17-22.68,27.17-51.61s-19.81-52.95-39.38-50.51"></path><ellipse class="cls-2" cx="402.1" cy="445.63" rx="13.49" ry="20.09"></ellipse><path class="cls-2" d="M479,346.18c18.33-6.52,28.61-22.73,28.61-51.66S487.82,241.57,468.25,244c-6.59.82-19.42,6.92-23.06,8.27-17.26,6.11-29.55,24.43-29.55,51.33,0,28.93,16,52.38,35.71,52.38a25.15,25.15,0,0,0,5-.52Z"></path><path class="cls-2" d="M456.29,355.43c15.31-4.55,27.17-22.68,27.17-51.61s-19.81-52.95-39.38-50.51"></path><ellipse class="cls-2" cx="448.87" cy="304.2" rx="13.49" ry="20.09"></ellipse><line class="cls-1" x1="165.36" y1="412.54" x2="287.53" y2="366.06"></line><line class="cls-1" x1="404.91" y1="321.39" x2="448.39" y2="304.86"></line><line class="cls-1" x1="165.36" y1="533.91" x2="401.31" y2="444.15"></line><path class="cls-3" d="M561.2,225.1A184.34,184.34,0,0,0,317,316.73"></path><path class="cls-3" d="M575.18,244.45A184.33,184.33,0,0,0,331,336.08"></path><line class="cls-3" x1="256.56" y1="417.88" x2="207.14" y2="467.59"></line><line class="cls-3" x1="266.1" y1="427.69" x2="235.33" y2="490.67"></line><line class="cls-3" x1="247.83" y1="406.26" x2="185.41" y2="438.16"></line></g></g></svg>