<svg xmlns="http://www.w3.org/2000/svg" viewBox="0 0 494.87 514.22"><defs><style>.cls-1{fill:#fff;}.cls-1,.cls-2{stroke:#0028f2;}.cls-1,.cls-2,.cls-3{stroke-linecap:round;stroke-linejoin:round;stroke-width:9px;}.cls-2,.cls-3{fill:none;}.cls-3{stroke:#ff7846;}</style></defs><g id="Layer_2" data-name="Layer 2"><g id="Layer_1-2" data-name="Layer 1"><path class="cls-1" d="M373.45,173.65c-101.34-31.18-155.07,24-235.57,24C29.29,197.64,4.5,78.08,4.5,78.08s22.65,38,76.05,38c85,0,142.61-155.24,342.48-99.42"></path><path class="cls-2" d="M338.1,421c-34.11,14.86-94.57,5.38-106.68-28.81"></path><path class="cls-2" d="M328,236c49.31,0,140.08.05,140.08,45.74,0,30.82-35.27,43.7-59.69,43.7-31.65,0-57.45-9.56-57.45-27.64s17.66-32.13,55.64-32.13"></path><path class="cls-2" d="M236.33,401.36c-23.3,15.94-84,62.54-84,62.54"></path><path class="cls-1" d="M333.86,365.1l-43.5,137.63a10,10,0,0,1-11.47,6.8,10.65,10.65,0,0,1-1.08-.27,10,10,0,0,1-6.52-12.55L423,16.61a10,10,0,0,1,19.07,6L363.37,271.72"></path><path class="cls-2" d="M449,314.2c22.19,14,12.86,67.9-56.39,67.9-40.93,0-66.69-13.53-66.69-36.25s21.29-29.5,33.19-32.74"></path><path class="cls-2" d="M344.43,372.77c-9.86,4.12-17.81,14.62-17.81,28.17s15.54,31.89,56.59,31.89,81.88-26.38,60-65.44"></path><path class="cls-1" d="M120.5,360.79c37.36-10.15,71.24-28.6,97-52,0,0-7-109.16,97.18-109.16,52.86,0,48.79,58,48.79,106.09,0,32.95-11.69,42.75-32.31,42.75-24.68,0-46.4-12.68-46.4-39.83,0-37.45,21-52.1,21-52.1"></path><path class="cls-3" d="M490.37,80.6A326.56,326.56,0,0,0,285.54,46"></path><path class="cls-3" d="M486,100.39a326.63,326.63,0,0,0-204.83-34.6"></path></g></g></svg>