<svg xmlns="http://www.w3.org/2000/svg" width="544" height="545" viewBox="0 0 544 545" fill="none"><path d="M316.9 132.322C372.9 117.322 397.8 46.3223 445.7 46.3223C488.5 46.3223 512.2 158.622 345.2 192.922C314.4 199.222 285.6 248.022 285.6 248.022" stroke="#0028F2" stroke-width="9" stroke-miterlimit="10" stroke-linecap="round" stroke-linejoin="round"></path><path d="M241.4 66.622C262 57.822 305.2 36.022 307.7 88.522C310.2 141.022 353.5 185.422 317.1 209.222C297.2 222.222 265.2 212.922 249.6 190.422" stroke="#0028F2" stroke-width="9" stroke-miterlimit="10" stroke-linecap="round" stroke-linejoin="round"></path><path d="M124.8 114.122C124.8 114.122 161.8 35.3222 208.1 33.4222C254.4 31.5222 226.7 124.722 244.5 144.022C264.4 165.622 257.8 205.222 213.4 205.222C169 205.222 156.4 150.222 177 101.522" stroke="#0028F2" stroke-width="9" stroke-miterlimit="10" stroke-linecap="round" stroke-linejoin="round"></path><path d="M85.5 165.522C85.5 165.522 31 200.122 31 243.622C31 287.122 59.8 300.022 83.9 300.022C108 300.022 118 289.522 118 289.522C118 289.522 128.8 328.822 176.3 328.822C235.3 328.822 232.3 231.622 149.6 231.622C84.4 231.622 90.4 231.622 90.4 231.622" stroke="#0028F2" stroke-width="9" stroke-miterlimit="10" stroke-linecap="round" stroke-linejoin="round"></path><path d="M232.8 202.522L356 310.422L408.4 445.722L277.9 386.122L214.3 305.622" stroke="#0028F2" stroke-width="9" stroke-miterlimit="10" stroke-linecap="round" stroke-linejoin="round"></path><path d="M167.4 153.222L87.9 80.1221L65.7 85.7221L54 98.2221L49.3 121.222L143.5 229.922" stroke="#0028F2" stroke-width="9" stroke-miterlimit="10" stroke-linecap="round" stroke-linejoin="round"></path><path d="M356 310.422L319.8 317.722L292.4 344.222L277.9 386.122" stroke="#0028F2" stroke-width="9" stroke-miterlimit="10" stroke-linecap="round" stroke-linejoin="round"></path><path d="M232.8 327.622C232.8 327.622 173 358.822 145.4 382.022C117.7 405.122 91 447.122 91 447.122" stroke="#0028F2" stroke-width="9" stroke-miterlimit="10" stroke-linecap="round" stroke-linejoin="round"></path><path d="M70.6 298.422C70.6 298.422 58.2 345.422 13 373.722" stroke="#0028F2" stroke-width="9" stroke-miterlimit="10" stroke-linecap="round" stroke-linejoin="round"></path><path d="M408.4 445.722L374.2 360.522C348.7 355.622 329.1 385.022 332 410.522L408.4 445.722Z" stroke="#0028F2" stroke-width="9" stroke-miterlimit="10" stroke-linecap="round" stroke-linejoin="round"></path><path d="M87.9 80.1222L59.7 50.8222C52.9 43.7222 41.5 43.8222 34.8 51.0222L21.2 65.4222C15.1 71.8222 15 81.8222 20.8 88.5222L49.3 121.222" stroke="#0028F2" stroke-width="9" stroke-miterlimit="10" stroke-linecap="round" stroke-linejoin="round"></path><path d="M76.3 67.9224L55.3 71.2224L41.6 85.9224L35.4 105.322" stroke="#0028F2" stroke-width="9" stroke-miterlimit="10" stroke-linecap="round" stroke-linejoin="round"></path><path d="M332.6 461.522L231.7 501.222" stroke="#FF7846" stroke-width="9" stroke-miterlimit="10" stroke-linecap="round" stroke-linejoin="round"></path><path d="M327.4 439.622L219.2 446.022" stroke="#FF7846" stroke-width="9" stroke-miterlimit="10" stroke-linecap="round" stroke-linejoin="round"></path><path d="M418.9 386.422L503.9 319.022" stroke="#FF7846" stroke-width="9" stroke-miterlimit="10" stroke-linecap="round" stroke-linejoin="round"></path><path d="M430.2 405.822L531.9 368.222" stroke="#FF7846" stroke-width="9" stroke-miterlimit="10" stroke-linecap="round" stroke-linejoin="round"></path></svg>