<?xml version="1.0" encoding="utf-8"?>
<!-- Generator: Adobe Illustrator 23.0.2, SVG Export Plug-In . SVG Version: 6.00 Build 0)  -->
<svg version="1.1" id="Layer_1" xmlns="http://www.w3.org/2000/svg" xmlns:xlink="http://www.w3.org/1999/xlink" x="0px" y="0px"
	 viewBox="0 0 376 330" style="enable-background:new 0 0 376 330;" xml:space="preserve">
<style type="text/css">
	.st0{fill:#0029F2;}
</style>
<path class="st0" d="M307.8,177.6c-1.1,0-2.2-0.5-2.9-1.4c-0.5-0.7-0.8-1.5-0.8-2.3c0-1.1,0.5-2.2,1.4-2.9l41.5-33
	c1.6-1.3,3.9-1,5.2,0.6c0.5,0.7,0.8,1.5,0.8,2.3c0,1.1-0.5,2.2-1.4,2.9l-41.5,33C309.4,177.3,308.6,177.6,307.8,177.6z M302.4,158.6
	c-0.9,0-1.7-0.3-2.4-0.9c-0.8-0.7-1.3-1.8-1.3-2.8c0-0.9,0.3-1.7,0.9-2.4l34.7-40.1c1.3-1.5,3.7-1.7,5.2-0.4
	c0.8,0.7,1.3,1.8,1.3,2.8c0,0.9-0.3,1.7-0.9,2.4l-34.7,40.1C304.5,158.2,303.5,158.6,302.4,158.6z M159,148.3c-0.9,0-1.8-0.3-2.6-1
	l-37.7-36.3c-1.5-1.4-1.5-3.8-0.1-5.2c1.4-1.5,3.8-1.5,5.2-0.1l37.7,36.3c1.5,1.4,1.5,3.8,0.1,5.2C161,147.9,160,148.3,159,148.3z
	 M165,136.9c-1.2,0-2.3-0.5-3-1.6l-30.1-43c-0.5-0.6-0.7-1.4-0.7-2.1c0-1.2,0.5-2.3,1.6-3c1.7-1.2,4-0.8,5.2,0.9l30.1,43
	c0.5,0.6,0.7,1.4,0.7,2.1c0,1.2-0.5,2.3-1.6,3C166.4,136.7,165.7,136.9,165,136.9z"/>
<path class="st0" d="M61.2,321.3c-1.4,0-2.8-0.8-3.4-2.2c-0.8-1.9,0.1-4.1,1.9-4.9l63.4-27.5c-1.7-1.2-3.3-2.5-4.8-3.8
	c-1.5-1.3-1.7-3.7-0.3-5.2c1.3-1.5,3.7-1.7,5.2-0.3c12.7,11.1,32.5,16.9,51.6,15c14.7-1.4,27.1-7.3,35.5-16.5
	c-5.8-3.7-11-8.6-15.3-14.6c-4-5.6-7-11.8-9-18.4c-13,10.6-29.7,14.7-40.6,15c-2.1,0-3.7-1.6-3.8-3.6c-0.1-2,1.6-3.7,3.6-3.8
	c10.5-0.3,27.1-4.6,38.9-15.8c-1.9-12.1-0.5-25.1,4.3-38c0.7-1.9,2.8-2.9,4.8-2.2c1.9,0.7,2.9,2.8,2.2,4.8
	c-7.8,20.8-5.7,41.8,5.7,57.7c9,12.5,22.1,19.5,36.1,19.1c15.3-0.4,31.6-12,31.3-28.7c-0.1-5.8-1.6-10-4.7-13
	c-4.1-3.9-11.4-5.8-21.6-5.5c-7.7,0.2-13.1-3.9-16-12.2c-1.4-4-2.1-8.7-2.7-13.8c-0.3-0.5-0.5-1.1-0.5-1.7c0-1,0-1.9,0.1-2.8
	c-0.1-1.8-0.3-3.6-0.4-5.4c-1-14.2-2.3-25.4-6.9-32c-0.5-0.4-0.9-0.9-1.1-1.4c-3-3.4-7.2-5.1-13.2-5c-27.7,0.8-45.1,24.6-60.4,45.7
	c-6.7,9.2-13,17.8-19.5,23.4c-10.6,9.1-36.8,16.9-79.9,23.9c-2,0.3-3.9-1-4.2-3.1c-0.3-2,1-3.9,3.1-4.2
	c41.2-6.7,66.8-14.2,76.3-22.2c5.9-5,11.9-13.3,18.3-22.1c9.2-12.7,19.8-27.2,33.4-37c0,0,0,0,0,0C183,140,184.8,102.6,185,91.6
	c0.2-10.2-0.4-19.4-0.8-27.5c-0.9-16.6-1.6-28.5,4.7-35.4c3.2-3.5,7.8-5.2,14.2-5.4c8.9-0.2,17.1,3,23.7,9.4
	c9.2,8.8,15,23.1,15.2,37.5c0.3,19-2.9,39.1-9.4,60.1c7.3-14.1,11.8-28.4,15.7-40.8c6.8-21.7,12.3-38.9,28.6-39.4
	c7.5-0.2,14.8,2.6,20.3,7.9c4.8,4.6,10.6,13.2,10.8,28.4c0.4,24.2-18.8,54-40,74.2c6.8,0.6,13.4,3.4,18.1,8c5.1,4.9,7.9,11.5,8,18.9
	c0.3,16.1-8.7,32.7-28.8,39c1.3,0.8,2.5,1.7,3.6,2.8c4.5,4.3,6.9,10.5,7,18.2c0.3,21-19.6,35.7-38.5,36.2c-7,0.2-14-1.2-20.4-4.1
	c-9.6,11.4-24.2,18.6-41.5,20.3c-15.6,1.5-31.6-1.6-44.7-8.3c-0.2,0.1-0.4,0.2-0.6,0.3L62.7,321C62.2,321.2,61.7,321.3,61.2,321.3z
	 M244.5,221.5c1.2,0,2.4,0,3.5,0.1c0.2,0,0.4,0,0.5-0.1c23.6-0.6,38.6-14,38.3-34.1c-0.1-5.5-2.1-10.2-5.7-13.7
	c-4.1-3.9-10.1-6.2-16-6c-14,0.4-32.9,11.1-34.4,30.4c1.4,16.1,3.5,23.6,11.4,23.4C242.9,221.5,243.7,221.5,244.5,221.5z
	 M222.9,158.1c3.7,6.1,5.3,14,6.3,22.1c6.2-9.5,16.4-15.8,26.2-18.4c0,0,0.1-0.1,0.1-0.1c22.1-18.2,45.5-50.8,45.1-75.3
	c-0.2-9.9-3.1-17.9-8.5-23.1c-4.1-3.9-9.4-6-15-5.9c-10.6,0.3-14.9,12.6-21.8,34.2C249.1,111.6,241.3,136.3,222.9,158.1z M204,30.6
	c-0.2,0-0.5,0-0.7,0c-4.2,0.1-7.1,1.1-8.9,3c-4.2,4.5-3.5,15.8-2.7,30c0.5,8.2,1,17.6,0.8,28.1c-0.2,12.3-1.8,39.5-11.1,59.9
	c6.1-2.6,12.7-4.2,20-4.4c6.7-0.2,11.7,1.4,15.6,4.3c12.1-28.9,18-56.2,17.6-81.3c-0.2-12.2-5.3-24.9-13-32.2
	C216.5,33.1,210.6,30.6,204,30.6z"/>
</svg>
