<svg width="168" height="42" viewBox="0 0 168 42" fill="none" xmlns="http://www.w3.org/2000/svg">
<g clip-path="url(#clip0)">
<path d="M129.378 9.63647H120.14C119.508 9.63647 118.971 10.0961 118.872 10.7201L115.136 34.4067C115.063 34.8742 115.424 35.2969 115.897 35.2969H120.637C121.079 35.2969 121.456 34.9755 121.524 34.5383L122.584 27.8234C122.682 27.1994 123.22 26.7398 123.852 26.7398H126.775C132.859 26.7398 136.371 23.795 137.289 17.959C137.702 15.4065 137.305 13.4008 136.11 11.9967C134.796 10.4527 132.468 9.63647 129.378 9.63647ZM130.444 18.2874C129.939 21.6033 127.407 21.6033 124.957 21.6033H123.564L124.541 15.4123C124.6 15.0378 124.923 14.7622 125.302 14.7622H125.94C127.608 14.7622 129.183 14.7622 129.995 15.7121C130.481 16.2808 130.627 17.1232 130.444 18.2874Z" fill="#0029F2"/>
<path d="M63.4924 9.63647H54.2548C53.6234 9.63647 53.0857 10.0961 52.9869 10.7201L49.2512 34.4067C49.1777 34.8742 49.5389 35.2969 50.0122 35.2969H54.423C55.0545 35.2969 55.5921 34.8377 55.6909 34.2137L56.699 27.8234C56.7973 27.1994 57.335 26.7398 57.9665 26.7398H60.8897C66.9744 26.7398 70.4859 23.795 71.4038 17.959C71.8169 15.4065 71.4205 13.4008 70.2256 11.9967C68.9112 10.4527 66.5825 9.63647 63.4924 9.63647ZM64.5585 18.2874C64.0537 21.6033 61.5211 21.6033 59.0721 21.6033H57.6783L58.6556 15.4123C58.715 15.0378 59.0372 14.7622 59.4162 14.7622H60.0552C61.7225 14.7622 63.2977 14.7622 64.1093 15.7121C64.5951 16.2808 64.742 17.1232 64.5585 18.2874Z" fill="#0029F2"/>
<path d="M91.1025 18.1814H86.6797C86.3006 18.1814 85.978 18.4571 85.9186 18.8315L85.7243 20.0683L85.415 19.6204C84.4568 18.23 82.322 17.7654 80.1901 17.7654C75.3036 17.7654 71.1286 21.4687 70.3162 26.6625C69.8931 29.2535 70.4934 31.73 71.9627 33.4584C73.3124 35.0464 75.2388 35.7074 77.5339 35.7074C81.4726 35.7074 83.6576 33.1765 83.6576 33.1765L83.46 34.4062C83.3857 34.8737 83.7469 35.2967 84.2206 35.2967H88.2042C88.8356 35.2967 89.3729 34.8376 89.4717 34.214L91.863 19.0715C91.9369 18.6036 91.5757 18.1814 91.1025 18.1814ZM84.938 26.7912C84.5108 29.3183 82.5043 31.0151 79.9452 31.0151C78.6623 31.0151 77.6352 30.6024 76.9751 29.8211C76.3208 29.0468 76.0746 27.9433 76.2821 26.7144C76.6803 24.2096 78.7192 22.458 81.2393 22.458C82.4952 22.458 83.5152 22.8745 84.1882 23.6633C84.8658 24.4575 85.1319 25.5681 84.938 26.7912Z" fill="#0029F2"/>
<path d="M156.988 18.1814H152.565C152.186 18.1814 151.863 18.4571 151.804 18.8315L151.61 20.0683L151.3 19.6204C150.342 18.23 148.207 17.7654 146.075 17.7654C141.188 17.7654 137.014 21.4687 136.202 26.6625C135.779 29.2535 136.379 31.73 137.848 33.4584C139.198 35.0464 141.125 35.7074 143.42 35.7074C147.358 35.7074 149.543 33.1765 149.543 33.1765L149.346 34.4062C149.271 34.8737 149.633 35.2967 150.106 35.2967H154.09C154.721 35.2967 155.259 34.8376 155.357 34.214L157.749 19.0715C157.823 18.6036 157.461 18.1814 156.988 18.1814ZM150.824 26.7912C150.397 29.3183 148.39 31.0151 145.831 31.0151C144.548 31.0151 143.521 30.6024 142.861 29.8211C142.207 29.0468 141.96 27.9433 142.168 26.7144C142.566 24.2096 144.605 22.458 147.125 22.458C148.38 22.458 149.401 22.8745 150.074 23.6633C150.751 24.4575 151.017 25.5681 150.824 26.7912Z" fill="#0029F2"/>
<path d="M114.662 18.1816H110.215C109.79 18.1816 109.393 18.3929 109.153 18.7445L103.021 27.777L100.421 19.097C100.258 18.554 99.7586 18.1812 99.1919 18.1812H94.8214C94.2937 18.1812 93.9226 18.7001 94.0924 19.2L98.9881 33.5698L94.3834 40.0664C94.0218 40.5767 94.3867 41.282 95.012 41.282H99.4535C99.8745 41.282 100.268 41.0757 100.508 40.7294L115.294 19.3901C115.648 18.8799 115.283 18.1816 114.662 18.1816Z" fill="#0029F2"/>
<path d="M162.203 10.2871L158.411 34.4072C158.337 34.8743 158.699 35.2969 159.171 35.2969H162.985C163.616 35.2969 164.154 34.8378 164.253 34.2138L167.991 10.5271C168.065 10.0596 167.704 9.63696 167.23 9.63696H162.964C162.584 9.63655 162.262 9.91264 162.203 10.2871Z" fill="#0029F2"/>
<path opacity="0.68" d="M31.1296 10.8775C31.627 7.70641 31.1263 5.54919 29.4112 3.59457C27.523 1.44316 24.112 0.521484 19.7477 0.521484H7.07922C6.18744 0.521484 5.42768 1.17039 5.28901 2.0518L0.0134479 35.5029C-0.0903446 36.163 0.419899 36.7596 1.08749 36.7596H8.90846L8.36874 40.1826C8.27782 40.7601 8.72371 41.282 9.30827 41.282H15.9007C16.6808 41.282 17.3451 40.7145 17.4668 39.9435L17.5315 39.6081L18.7733 31.7331L18.8534 31.298C18.9751 30.5275 19.6393 29.9591 20.4195 29.9591H21.4055C27.792 29.9591 32.7928 27.3647 34.2537 19.8609C34.8644 16.7256 34.5485 14.1083 32.9339 12.2683C32.4461 11.7128 31.8383 11.2528 31.1296 10.8775Z" fill="#0029F2"/>
<path opacity="0.7" d="M31.1296 10.8775C31.627 7.70641 31.1263 5.54919 29.4112 3.59457C27.523 1.44316 24.112 0.521484 19.7477 0.521484H7.07922C6.18744 0.521484 5.42768 1.17039 5.28901 2.0518L0.0134479 35.5029C-0.0903446 36.163 0.419899 36.7596 1.08749 36.7596H8.90846L10.873 24.3016L10.812 24.6922C10.9511 23.8113 11.7038 23.1619 12.596 23.1619H16.3134C23.6138 23.1619 29.3302 20.196 31.0001 11.6186C31.0499 11.3653 31.0918 11.1191 31.1296 10.8775Z" fill="#0029F2"/>
<path d="M12.9838 10.9194C13.0672 10.3897 13.4076 9.95539 13.8656 9.73618C14.0736 9.63653 14.3065 9.5809 14.5502 9.5809H24.4806C25.6572 9.5809 26.7541 9.65812 27.7567 9.81962C28.0432 9.86571 28.3222 9.91885 28.5933 9.97905C28.864 10.0392 29.1272 10.1061 29.3817 10.1808C29.5092 10.2178 29.6341 10.2572 29.7574 10.2979C30.2498 10.4615 30.7086 10.6541 31.1304 10.8779C31.6278 7.70683 31.1271 5.5496 29.412 3.59499C27.523 1.44316 24.112 0.521484 19.7477 0.521484H7.07922C6.18744 0.521484 5.42768 1.17039 5.28901 2.0518L0.0134479 35.5029C-0.0903446 36.163 0.419899 36.7596 1.08749 36.7596H8.90846L10.873 24.3016L12.9838 10.9194Z" fill="#0029F2"/>
</g>
<defs>
<clipPath id="clip0">
<rect width="168" height="40.7609" fill="white" transform="translate(-0.000488281 0.521484)"/>
</clipPath>
</defs>
</svg>
