<svg xmlns="http://www.w3.org/2000/svg" width="608" height="793" viewBox="0 0 608 793" fill="none"><g clip-path="url(#clip0)"><path d="M46.9432 108.16C35.3532 105.031 23.5167 102.9 11.5632 101.79V242.79C15.2351 241.823 18.9664 241.098 22.7332 240.62L46.9432 108.16Z" fill="#0028F2"></path><path d="M80.4634 120.9C69.6929 115.539 58.4178 111.258 46.8034 108.12L22.6934 240.65C26.4444 240.184 30.2375 240.164 33.9934 240.59L80.4634 120.9Z" fill="#FF7846"></path><path d="M109.113 138.38C100.103 131.778 90.5529 125.947 80.5632 120.95L34.0332 240.59C38.6148 241.13 43.1223 242.176 47.4732 243.71L109.113 138.38Z" fill="#0028F2"></path><path d="M131.453 156.79C124.326 150.215 116.838 144.042 109.023 138.3L47.4133 243.69C53.1409 245.706 58.7211 248.119 64.1133 250.91L131.453 156.79Z" fill="#FF7846"></path><path d="M148.823 173.44C143.743 168.44 138.053 162.83 131.513 156.85L64.1133 250.94C70.2633 254.04 77.0133 257.83 84.5633 262.01L148.823 173.44Z" fill="#0028F2"></path><path d="M162.203 186.22C158.283 182.69 153.833 178.36 148.753 173.38L84.4932 261.96C92.0432 266.13 100.423 270.72 109.943 275.12L162.203 186.22Z" fill="#FF7846"></path><path d="M172.623 194.63C168.981 192.074 165.513 189.278 162.243 186.26L110.033 275.16C120.299 279.976 131.018 283.758 142.033 286.45L172.623 194.63Z" fill="#0028F2"></path><path d="M182.393 199.65C178.905 198.451 175.603 196.768 172.583 194.65L141.893 286.46C153.673 289.299 165.785 290.51 177.893 290.06L182.393 199.65Z" fill="#FF7846"></path><path d="M195.393 201.79C193.131 201.714 190.876 201.487 188.643 201.11L187.823 201L186.993 200.81L185.353 200.47L184.543 200.31C184.283 200.25 184.063 200.15 183.823 200.08L182.423 199.63L178.043 289.99L182.483 289.74C183.223 289.69 183.973 289.66 184.693 289.59L186.803 289.34L191.013 288.82L193.113 288.54L195.203 288.17C200.749 287.23 206.232 285.955 211.623 284.35L195.393 201.79Z" fill="#0028F2"></path><path d="M210.753 200.27C205.697 201.42 200.517 201.93 195.333 201.79L211.503 284.39C221.646 281.343 231.434 277.223 240.703 272.1L210.753 200.27Z" fill="#FF7846"></path><path d="M229.953 194.4C223.714 196.785 217.319 198.743 210.813 200.26L240.813 272.08C248.736 267.661 256.389 262.776 263.733 257.45L229.953 194.4Z" fill="#0028F2"></path><path d="M253.003 185.79C244.603 188.79 236.913 191.85 229.863 194.42L263.623 257.49C270.333 252.7 276.283 248.2 281.873 244.27L253.003 185.79Z" fill="#FF7846"></path><path d="M280.283 178.01C271.053 179.954 261.974 182.554 253.113 185.79L281.963 244.26C287.075 240.564 292.42 237.2 297.963 234.19L280.283 178.01Z" fill="#0028F2"></path><path d="M309.913 175.42C299.93 175.16 289.949 176.035 280.163 178.03L297.883 234.2C302.989 231.482 308.387 229.352 313.973 227.85L309.913 175.42Z" fill="#FF7846"></path><path d="M338.663 179.61C329.305 177.124 319.692 175.722 310.013 175.43L314.013 227.84C319.893 226.303 325.936 225.474 332.013 225.37L338.663 179.61Z" fill="#0028F2"></path><path d="M364.113 188.79C355.855 185.041 347.307 181.964 338.553 179.59L331.973 225.39C338.668 225.325 345.357 225.81 351.973 226.84L364.113 188.79Z" fill="#FF7846"></path><path d="M389.673 646.24C268.243 645.79 231.323 290.54 98.6734 288.43C60.7034 287.79 18.4734 305.58 18.4734 388.79C18.4734 538.29 205.013 719.33 389.673 646.22" fill="#0028F2"></path><path d="M389.673 646.24C268.243 645.79 231.323 290.54 98.6734 288.43C60.7034 287.79 18.4734 305.58 18.4734 388.79C18.4734 538.29 205.013 719.33 389.673 646.22" stroke="#0028F2" stroke-width="9.06" stroke-linecap="round" stroke-linejoin="round"></path><path d="M309.693 225.23C259.803 225.23 218.033 366.64 218.033 366.64C218.033 366.64 251.143 414.16 295.663 443.14C273.113 501.18 240.343 563.79 240.343 623.79C240.343 678.18 298.263 714.96 305.063 741.41C305.063 741.41 285.173 742.32 266.063 742.32C235.123 742.32 216.663 755.15 216.663 766.98C216.663 775.63 226.173 788.22 249.473 788.22C301.843 788.22 333.703 758.82 358.993 749.16C356.783 739.34 354.173 734.3 354.173 724.4C354.173 701.65 397.463 685.66 448.073 662.76L433.723 655.48L438.533 668.04C447.533 694.55 440.663 724.6 413.963 754.36C413.963 754.36 556.193 775 576.073 754.36C585.073 744.99 573.783 725.44 540.073 725.44C511.013 725.44 499.843 739.36 461.483 739.36C461.483 739.36 546.923 695.44 546.923 642.36C546.923 625.81 542.203 618.17 538.693 612.56L530.353 599.5L533.713 615.32C573.933 585.74 604.953 545.71 604.953 486.94C604.953 415.7 553.703 343.54 514.273 291.59L498.683 274.69L471.763 231.45C471.763 231.45 469.403 226.12 469.703 221.21C470.133 214.27 475.493 203.21 475.493 203.21C481.863 189.79 491.113 175.79 491.113 165C491.113 157.88 487.583 151.54 483.563 144.08C484.97 137.447 485.64 130.68 485.563 123.9C485.563 103.97 474.233 80.0201 474.233 80.0201C471.453 79.8301 468.613 79.7401 465.743 79.7201C456.835 79.5513 447.927 80.1233 439.113 81.43C427.463 71.12 407.833 60.05 377.293 60.05C317.093 60.05 298.373 88.3601 269.023 88.3601C252.943 88.3601 244.773 93.76 244.773 106.78C244.773 123.78 260.773 140.08 275.653 140.08H276.993C267.543 149.49 262.743 163.85 262.743 178.25C262.743 205.25 282.643 225.2 309.693 225.2C313.613 225.204 317.528 225.468 321.413 225.99" fill="white"></path><path d="M544.703 338.26C559.593 255.49 513.773 209.79 473.413 209.79H431.293V344.26L544.703 338.26Z" fill="white"></path><path d="M92.8532 456.71C87.0132 459.79 81.9132 466.91 81.0433 477.79C80.7879 480.741 80.8348 483.709 81.1833 486.65C81.6109 490.081 82.3131 493.472 83.2832 496.79C84.4254 500.659 85.8975 504.423 87.6833 508.04C88.6232 510.04 89.6833 512.04 90.8033 514.04C91.9233 516.04 93.3033 518.11 94.7233 520.2C106.093 536.95 118.723 545.73 129.343 548.94C133.896 550.443 138.731 550.894 143.483 550.26C147.155 549.738 150.604 548.188 153.433 545.79C148.493 550.16 145.123 557.95 146.593 568.61C147.706 574.822 149.958 580.776 153.233 586.17C157.844 593.608 163.578 600.287 170.233 605.97C172.153 607.65 174.023 609.24 175.903 610.67C177.783 612.1 179.673 613.33 181.513 614.5C184.867 616.693 188.399 618.6 192.073 620.2C198.913 623.01 204.973 624.36 210.293 624.43C220.993 624.48 228.293 620.13 231.963 614.66C229.959 617.784 228.878 621.409 228.843 625.12C228.824 629.917 229.895 634.656 231.973 638.98C233.232 641.714 234.731 644.331 236.453 646.8C238.516 649.586 240.797 652.204 243.273 654.63C244.613 655.95 246.043 657.27 247.583 658.63C248.353 659.28 249.143 659.94 249.973 660.63C250.803 661.32 251.663 661.88 252.553 662.5C256.377 665.152 260.357 667.57 264.473 669.74C266.673 670.95 268.873 671.87 270.993 672.81C273.113 673.75 275.183 674.55 277.193 675.3C279.203 676.05 281.193 676.71 283.063 677.3C284.933 677.89 286.823 678.3 288.613 678.67C291.929 679.361 295.292 679.799 298.673 679.98C301.55 680.17 304.438 680.032 307.283 679.57C317.853 677.77 324.463 672.08 327.513 664.13C329.713 658.39 330.513 647.99 333.413 638C336.313 628.01 341.413 618.39 351.163 613.88C334.403 597.18 317.863 586.48 303.593 581.88C301.872 581.318 300.123 580.844 298.353 580.46C296.643 580.09 294.953 579.87 293.353 579.64C290.364 579.235 287.33 579.279 284.353 579.77C278.793 580.77 274.213 583.49 271.353 588.13C268.693 592.46 267.263 598.61 265.943 604.8C264.623 610.99 263.393 617.24 260.843 621.61C258.643 625.36 255.393 629.27 249.093 625.56C244.453 622.62 242.653 616.65 243.093 609.42C243.533 602.19 246.363 593.54 250.493 585.26C254.582 577.043 259.77 569.42 265.913 562.6C271.723 556.27 277.753 551.69 283.353 550.1C282.633 548.92 281.903 547.78 281.173 546.66C280.443 545.54 279.763 544.38 279.043 543.29C277.603 541.103 276.133 539.037 274.633 537.09C273.103 535.18 271.633 533.24 270.173 531.45C268.713 529.66 267.173 528 265.623 526.45C264.073 524.9 262.623 523.34 261.073 521.96C259.599 520.59 258.057 519.295 256.453 518.08C254.873 516.92 253.383 515.75 251.853 514.73C250.372 513.722 248.837 512.798 247.253 511.96C244.377 510.418 241.364 509.146 238.253 508.16C235.437 507.329 232.52 506.888 229.583 506.85C226.94 506.722 224.299 507.125 221.814 508.033C219.329 508.942 217.051 510.338 215.113 512.14C207.643 519.34 202.053 528.65 197.113 537.84C194.603 542.44 192.283 546.94 189.883 551.05C187.714 554.94 185.1 558.565 182.093 561.85C180.625 563.546 178.646 564.718 176.453 565.19C175.221 565.363 173.964 565.204 172.813 564.73C171.272 564.013 169.891 562.993 168.753 561.73C166.686 559.451 165.555 556.477 165.583 553.4C165.523 551.566 165.691 549.732 166.083 547.94C166.51 545.872 167.095 543.839 167.833 541.86C170.903 533.44 176.893 524.01 184.243 515.25C191.434 506.659 199.606 498.939 208.593 492.25C216.833 486.25 224.723 482.15 230.543 481.72C227.853 471.6 224.623 462.8 220.613 455.53C218.802 452.015 216.68 448.668 214.273 445.53C212.209 442.646 209.838 439.994 207.203 437.62C204.918 435.409 202.369 433.487 199.613 431.9C198.963 431.52 198.303 431.18 197.613 430.9C196.923 430.62 196.313 430.26 195.663 429.98C194.383 429.431 193.062 428.979 191.713 428.63C186.539 427.193 181.007 427.851 176.313 430.46C165.313 436.71 154.063 446.46 143.883 456.16C133.703 465.86 124.513 475.34 116.883 479.98C113.173 482.25 108.063 483.41 104.213 476.89C103.417 475.541 102.856 474.067 102.553 472.53C102.298 471.002 102.278 469.444 102.493 467.91C103.058 464.506 104.347 461.263 106.273 458.4C110.273 452.06 117.183 445.79 124.923 440.4C132.478 435.128 140.55 430.638 149.013 427C156.713 423.71 163.463 421.77 167.503 421.93C167.423 419.11 167.263 416.38 167.023 413.74C166.913 412.42 166.753 411.13 166.613 409.83C166.473 408.53 166.333 407.26 166.163 406C165.833 403.49 165.413 401.06 164.933 398.73C164.453 396.4 163.993 394.06 163.423 391.85C161.503 383.917 158.405 376.316 154.233 369.3C150.493 363.15 146.003 358.57 141.233 355.85C138.967 354.499 136.435 353.655 133.811 353.375C131.187 353.095 128.534 353.387 126.033 354.23C121.253 355.86 113.263 361.7 103.803 368.23C94.3433 374.76 83.3933 382.11 72.5233 386.08C68.4233 387.58 62.9233 386.98 60.5233 380.08C59.7741 378.055 59.4591 375.894 59.5986 373.739C59.7382 371.584 60.3292 369.482 61.3333 367.57C63.2433 363.79 66.6733 360.51 71.1133 357.87C79.9832 352.6 92.7833 350 105.733 351.07C105.003 337.07 101.733 326.01 96.8633 318.86C91.9933 311.71 85.3333 308.49 78.0833 310.44C69.1138 312.788 60.8035 317.165 53.7936 323.233C46.7838 329.302 41.2616 336.899 37.6533 345.44C35.7117 350.01 34.2375 354.764 33.2533 359.63C32.2412 364.863 31.7356 370.181 31.7433 375.51C31.8874 387.632 34.2216 399.628 38.6333 410.92C40.612 416.068 42.8961 421.094 45.4733 425.97C47.6746 430.072 50.1502 434.021 52.8833 437.79C55.2195 440.974 57.7864 443.982 60.5633 446.79C62.9127 449.093 65.4666 451.179 68.1933 453.02C72.3272 455.93 77.1024 457.8 82.1133 458.47C85.7887 458.968 89.529 458.355 92.8532 456.71Z" fill="white"></path><path d="M437.173 668.23C446.083 694.51 439.283 724.3 412.813 753.81C412.813 753.81 553.813 774.27 573.533 753.81C582.473 744.52 571.263 725.13 537.863 725.13C509.053 725.13 497.983 738.94 459.953 738.94C459.953 738.94 544.653 695.4 544.653 642.78C544.653 626.37 539.973 618.78 536.493 613.23L536.383 613.29C505.973 636.79 469.523 653.79 437.183 668.22L437.173 668.23Z" fill="white" stroke="#0028F2" stroke-width="1.85" stroke-miterlimit="10"></path><path d="M452.723 103.51C452.723 103.51 433.943 64.96 377.163 64.96C317.383 64.96 298.803 93.07 269.663 93.07C253.663 93.07 245.583 98.44 245.583 111.36C245.583 128.26 261.423 144.43 276.253 144.43" stroke="#0028F2" stroke-width="9" stroke-linecap="round" stroke-linejoin="round"></path><path d="M372.643 81.57C356.743 73.63 337.803 78.71 325.283 101.57" stroke="#0028F2" stroke-width="9" stroke-linecap="round" stroke-linejoin="round"></path><path d="M437.113 62.1801C421.263 54.1801 409.973 67.7601 413.373 81.9501" stroke="#0028F2" stroke-width="9" stroke-linecap="round" stroke-linejoin="round"></path><path d="M456.783 153.7C422.183 194.97 365.783 160.79 365.783 160.79C365.783 143.13 376.873 78.3501 473.453 83.7901C473.453 83.7901 484.703 107.56 484.703 127.35C484.703 148.58 478.953 162.95 472.813 162.95C466.673 162.95 456.783 153.7 456.783 153.7Z" stroke="#0028F2" stroke-width="9" stroke-linecap="round" stroke-linejoin="round"></path><circle cx="434.087" cy="129.774" r="4.42193" fill="#0028F2"></circle><circle cx="414.792" cy="144.246" r="4.42193" fill="#0028F2"></circle><circle cx="406.752" cy="124.95" r="4.42193" fill="#0028F2"></circle><path d="M473.473 83.7901C473.473 83.7901 472.473 102.94 458.073 117.7C446.303 111.44 429.783 100.11 421.743 89.0101C434.113 85.3801 455.193 82.5201 473.473 83.7901Z" fill="#0028F2" stroke="#0028F2" stroke-width="9" stroke-linecap="round" stroke-linejoin="round"></path><path d="M467.843 161.57L463.133 200.34L437.903 205.95L436.573 169.23" stroke="#0028F2" stroke-width="9" stroke-linecap="round" stroke-linejoin="round"></path><path d="M373.193 298.27C349.733 316.75 308.403 365.01 301.443 374.96C301.443 397.4 326.733 433.59 380.073 453.39C384.413 472.39 387.403 530.48 368.403 530.48C349.403 530.48 339.843 480.26 361.343 480.26C377.903 480.26 371.663 510.93 371.663 510.93" stroke="#0028F2" stroke-width="9" stroke-linecap="round" stroke-linejoin="round"></path><path d="M361.173 527.9C353.173 531.56 331.773 533.19 329.873 508.76C327.973 484.33 342.093 473.76 353.873 483.13" stroke="#0028F2" stroke-width="9" stroke-linecap="round" stroke-linejoin="round"></path><path d="M336.683 463.06C328.903 470.84 323.943 472.36 315.003 472.83C305.003 473.35 291.323 477.35 291.323 488.95C291.323 499.95 302.723 506.05 312.763 502.25" stroke="#0028F2" stroke-width="9" stroke-linecap="round" stroke-linejoin="round"></path><path d="M332.773 485.79C323.333 483.31 311.913 488.85 311.913 508.09C311.913 527.33 330.373 538.44 343.913 529.45" stroke="#0028F2" stroke-width="9" stroke-linecap="round" stroke-linejoin="round"></path><path d="M263.803 104.69C251.853 104.69 258.663 128.37 271.223 128.37" stroke="#0028F2" stroke-width="9" stroke-linecap="round" stroke-linejoin="round"></path><path d="M537.403 612.5C540.893 618.07 545.573 625.65 545.573 642.09C545.573 694.78 460.753 738.39 460.753 738.39C498.833 738.39 509.913 724.56 538.753 724.56C572.203 724.56 583.433 743.98 574.473 753.28C554.733 773.77 413.523 753.28 413.523 753.28C440.033 723.73 446.843 693.89 437.923 667.57" stroke="#0028F2" stroke-width="9" stroke-linecap="round" stroke-linejoin="round"></path><path d="M310.653 401.97C314.843 386.05 317.263 370.67 316.863 355.97" stroke="#0028F2" stroke-width="9" stroke-linecap="round" stroke-linejoin="round"></path><path d="M482.543 148.09C486.593 155.63 490.193 162 490.193 169.16C490.193 185.48 468.843 209.28 468.843 226.77C468.843 256.5 603.193 373.86 603.193 488.77C603.193 654.69 354.193 670.15 354.193 724.53C354.193 734.35 356.793 739.36 358.983 749.11C333.863 758.7 302.243 787.89 250.243 787.89C227.113 787.89 217.663 775.39 217.663 766.81C217.663 755.06 235.993 742.32 266.663 742.32C285.663 742.32 305.403 741.42 305.403 741.42C298.653 715.15 241.143 678.63 241.143 624.63C241.143 564.79 274.033 502.23 296.453 444.33" stroke="#0028F2" stroke-width="9" stroke-linecap="round" stroke-linejoin="round"></path><path d="M372.303 100.56L345.433 116.02" stroke="#0028F2" stroke-width="9" stroke-linecap="round" stroke-linejoin="round"></path><path d="M365.803 160.79C392.963 188.59 411.553 187.79 436.573 187.79" stroke="#0028F2" stroke-width="9" stroke-linecap="round" stroke-linejoin="round"></path><path d="M473.413 209.79C513.773 209.79 559.593 255.47 544.703 338.24" stroke="#0028F2" stroke-width="9" stroke-linecap="round" stroke-linejoin="round"></path><path d="M455.913 55.3599C444.945 41.1543 431.111 29.4153 415.309 20.9056C399.507 12.3959 382.092 7.30592 364.195 5.96645C346.298 4.62698 328.319 7.06796 311.427 13.1308C294.534 19.1936 279.107 28.7426 266.146 41.1573C253.185 53.5721 242.982 68.5747 236.198 85.1906C229.414 101.806 226.202 119.664 226.77 137.602C227.339 155.54 231.675 173.158 239.497 189.311C247.319 205.464 258.453 219.791 272.173 231.36L272.333 231.26C288.603 219.05 304.103 216.26 314.863 216.33C337.393 216.33 352.863 226.03 370.143 226.03C378.483 226.03 386.243 219.19 386.243 208.81C386.243 184 322.573 156.46 322.573 109.98C322.573 59.5999 364.573 43.5899 398.733 43.5899C431.593 43.5899 455.833 54.7799 455.833 54.7799L455.913 55.3599Z" fill="white" stroke="#0028F2" stroke-width="9.59" stroke-linecap="round" stroke-linejoin="round"></path><path d="M280.973 177.71C294.769 177.71 305.953 166.526 305.953 152.73C305.953 138.934 294.769 127.75 280.973 127.75C267.177 127.75 255.993 138.934 255.993 152.73C255.993 166.526 267.177 177.71 280.973 177.71Z" fill="#0028F2" stroke="#0028F2" stroke-width="9.59" stroke-linecap="round" stroke-linejoin="round"></path><path d="M455.913 55.36C466.233 59.79 451.113 73.89 451.113 84.11L437.613 85.56C437.613 85.56 407.483 51.72 334.613 70.49C352.013 45.79 403.273 33.03 455.913 55.36Z" fill="#0028F2" stroke="#0028F2" stroke-width="9.59" stroke-linecap="round" stroke-linejoin="round"></path><path d="M358.973 466.03C287.073 466.03 219.033 368.37 219.033 368.37C219.033 368.37 243.513 227.97 313.333 227.97C337.773 227.97 356.803 238.56 364.783 248.13" stroke="#0028F2" stroke-width="9" stroke-linecap="round" stroke-linejoin="round"></path><path d="M251.063 229.72L247.953 233.45L245.023 237.23L243.583 239.13L242.213 241.05L239.503 244.9L264.333 264.39L267.063 261.56L268.413 260.14L269.813 258.8L272.603 256.14L275.453 253.63L251.063 229.72Z" fill="#0028F2"></path><path d="M265.113 215.59C260.054 219.952 255.34 224.7 251.013 229.79L275.403 253.68C279.076 250.503 282.991 247.618 287.113 245.05L265.113 215.59Z" fill="#FF7846"></path><path d="M282.933 203.57C276.594 206.906 270.641 210.93 265.183 215.57L287.113 245.02C290.845 242.73 294.824 240.868 298.973 239.47L282.933 203.57Z" fill="#0028F2"></path><path d="M304.223 195.93C296.785 197.51 289.596 200.094 282.853 203.61L298.923 239.49C302.659 238.247 306.55 237.53 310.483 237.36L304.223 195.93Z" fill="#FF7846"></path><path d="M327.113 194.3C319.482 193.858 311.826 194.399 304.333 195.91L310.563 237.36C314.464 237.252 318.362 237.642 322.163 238.52L327.113 194.3Z" fill="#0028F2"></path><path d="M348.373 197.57C341.361 195.814 334.2 194.719 326.983 194.3L322.113 238.51C326.309 239.472 330.409 240.81 334.363 242.51L348.373 197.57Z" fill="#FF7846"></path><path d="M367.603 203.57C361.329 201.217 354.929 199.214 348.433 197.57L334.363 242.5C338.808 244.403 343.148 246.543 347.363 248.91L367.603 203.57Z" fill="#0028F2"></path><path d="M384.913 210.55C379.353 208.17 373.593 205.78 367.533 203.55L347.293 248.89C351.733 251.34 356.293 254.06 360.913 256.96L384.913 210.55Z" fill="#FF7846"></path><path d="M401.043 217.61L384.963 210.58L360.953 256.98L375.353 266.06L401.043 217.61Z" fill="#0028F2"></path><path d="M416.053 223.88C411.183 221.98 406.163 219.88 400.983 217.59L375.293 266.02C380.293 269.14 385.423 272.33 390.883 275.48L416.053 223.88Z" fill="#FF7846"></path><path d="M430.113 228.71C425.643 227.43 420.943 225.79 416.113 223.9L390.953 275.51C396.413 278.65 402.193 281.76 408.423 284.64L430.113 228.71Z" fill="#0028F2"></path><path d="M442.713 231.35C438.45 230.794 434.237 229.905 430.113 228.69L408.373 284.61C414.914 287.673 421.672 290.247 428.593 292.31L442.713 231.35Z" fill="#FF7846"></path><path d="M453.333 231.43C449.813 231.821 446.258 231.797 442.743 231.36L428.633 292.36C436.307 294.625 444.203 296.057 452.183 296.63L453.333 231.43Z" fill="#0028F2"></path><path d="M461.973 229.23C459.191 230.348 456.272 231.092 453.293 231.44L452.113 296.59C460.64 297.192 469.208 296.712 477.613 295.16L461.973 229.23Z" fill="#FF7846"></path><path d="M470.013 224.84C467.519 226.595 464.835 228.064 462.013 229.22L477.693 295.15C486.033 293.575 494.159 291.024 501.903 287.55L470.013 224.84Z" fill="#0028F2"></path><path d="M478.173 218.11C475.623 220.57 472.885 222.826 469.983 224.86L501.793 287.59C509.081 284.322 516.062 280.41 522.653 275.9L478.173 218.11Z" fill="#FF7846"></path></g><defs><clipPath id="clip0"><rect width="607.58" height="791.6" fill="white" transform="translate(0.113281 0.790039)"></rect></clipPath></defs></svg>