<svg xmlns="http://www.w3.org/2000/svg" width="704" height="758" viewBox="0 0 704 758" fill="none"><g clip-path="url(#clip0)"><path d="M659.676 596.996C653.867 596.991 648.116 598.158 642.768 600.425C631.947 590.775 618.931 583.915 604.854 580.445C590.776 576.974 576.064 576.997 561.998 580.512C558.775 572.409 553.568 565.246 546.856 559.68C540.143 554.113 532.139 550.323 523.58 548.656C515.02 546.989 506.179 547.499 497.868 550.14C489.558 552.781 482.043 557.467 476.016 563.769C469.988 570.07 465.64 577.785 463.371 586.205C461.102 594.625 460.985 603.48 463.031 611.957C465.076 620.434 469.218 628.261 475.077 634.72C480.936 641.179 488.324 646.062 496.562 648.922C495.376 654.773 494.781 660.728 494.785 666.697C494.785 668.783 494.863 670.851 495.001 672.901C485.16 668.463 474.019 667.845 463.747 671.167C463.608 670.348 463.517 669.901 463.517 669.901L430.958 659.678C433.637 669.815 433.992 679.379 432.445 688.045C431.781 687.998 431.118 687.963 430.446 687.963C423.317 687.963 416.48 690.795 411.439 695.836C406.398 700.877 403.566 707.714 403.566 714.843C403.566 715.341 403.566 715.836 403.609 716.33C401.355 715.467 398.908 715.238 396.533 715.667C394.158 716.096 391.946 717.167 390.137 718.764C388.327 720.361 386.989 722.423 386.268 724.726C385.547 727.029 385.47 729.486 386.046 731.829C381.741 732.576 377.379 732.947 373.009 732.939H293.072C290.843 732.939 288.658 732.839 286.512 732.662C286.512 732.545 286.512 732.428 286.512 732.306C286.512 729.539 285.643 726.842 284.03 724.594C282.416 722.347 280.138 720.662 277.516 719.777C280.885 714.754 282.462 708.742 281.991 702.712C281.521 696.682 279.031 690.987 274.923 686.548C270.816 682.109 265.331 679.184 259.356 678.247C253.381 677.311 247.264 678.417 241.995 681.386C239.614 677.995 236.484 675.199 232.848 673.214C233.171 668.639 233.928 664.105 235.111 659.674L202.551 669.897C202.551 669.897 201.979 672.732 201.467 677.367C199.737 679.016 198.231 680.886 196.989 682.929C193.096 678.488 188.334 674.891 182.998 672.361C177.661 669.831 171.862 668.421 165.96 668.219C170.43 664.166 174.356 659.551 177.64 654.489C184.002 650.627 189.262 645.19 192.911 638.703C196.56 632.216 198.475 624.898 198.472 617.455C198.476 615.229 198.311 613.005 197.977 610.804C210.164 615.728 223.544 616.895 236.398 614.156V485.721C226.11 483.521 215.445 483.824 205.298 486.605C195.152 489.386 185.822 494.564 178.094 501.702C170.366 508.84 164.465 517.731 160.889 527.625C157.313 537.519 156.166 548.127 157.545 558.557C148.797 552.794 138.861 549.079 128.477 547.691C118.094 546.302 107.531 547.275 97.5761 550.537C87.6211 553.799 78.5308 559.266 70.9827 566.53C63.4347 573.794 57.6237 582.668 53.9829 592.491C47.2565 590.463 40.0888 590.411 33.3337 592.341C26.5786 594.272 20.5209 598.104 15.8822 603.38C11.2436 608.656 8.21953 615.155 7.17037 622.102C6.1212 629.049 7.09116 636.151 9.96468 642.562C0.811973 658.276 -2.33122 676.776 1.11807 694.631C4.56736 712.486 14.375 728.484 28.7221 739.659C43.0691 750.833 60.9819 756.425 79.1381 755.397C97.2943 754.37 114.462 746.792 127.456 734.071C130.429 738.939 134.334 743.172 138.947 746.527C143.56 749.882 148.79 752.294 154.337 753.623C159.884 754.952 165.639 755.173 171.272 754.273C176.904 753.373 182.304 751.37 187.16 748.378C189.608 750.761 192.519 752.617 195.713 753.831C198.906 755.045 202.315 755.592 205.728 755.437C209.141 755.281 212.486 754.428 215.556 752.929C218.627 751.43 221.357 749.317 223.578 746.722C231.785 752.406 242.815 755.978 257.573 755.978C269.682 755.978 311.97 743.071 327.374 743.11H330.595H333.405C350.313 743.076 396.165 755.978 408.478 755.978C420.509 755.978 430.06 753.602 437.626 749.644C440.021 751.314 442.903 752.144 445.82 752.004C448.737 751.863 451.525 750.761 453.749 748.868C460.718 753.318 468.814 755.682 477.083 755.682C485.351 755.682 493.447 753.318 500.416 748.868C507.57 753.435 515.906 755.802 524.392 755.675C532.878 755.549 541.14 752.935 548.154 748.157C559.33 753.028 571.392 755.538 583.584 755.527C627.372 755.527 663.79 723.826 671.078 682.119C681.198 679.351 689.97 673.006 695.766 664.26C701.562 655.515 703.987 644.964 702.593 634.566C701.198 624.167 696.078 614.628 688.183 607.719C680.288 600.809 670.154 596.999 659.663 596.996H659.676Z" fill="#FF7846"></path><path d="M321.45 658.174C295.771 688.418 292.918 714.101 292.918 732.93H371.772C371.772 714.097 368.919 688.418 343.24 658.174" fill="#0028F2"></path><path d="M321.45 658.174C295.771 688.418 292.918 714.101 292.918 732.93H371.772C371.772 714.097 368.919 688.418 343.24 658.174" stroke="#0028F2" stroke-width="3.90194" stroke-linecap="round" stroke-linejoin="round"></path><path d="M436.264 468.323V375.179C436.264 215.109 366.662 108.248 332.645 108.248C298.629 108.248 229.027 215.109 229.027 375.179V465.626L239.302 483.601L246.304 612.538L237.43 657.892H426.864L424.636 497.587L436.264 468.323Z" fill="white" stroke="#0028F2" stroke-width="3.90194" stroke-linecap="round" stroke-linejoin="round"></path><path d="M330.433 410.808C370.461 410.808 402.91 378.36 402.91 338.332C402.91 298.304 370.461 265.856 330.433 265.856C290.406 265.856 257.957 298.304 257.957 338.332C257.957 378.36 290.406 410.808 330.433 410.808Z" fill="#0028F2" stroke="#0028F2" stroke-width="3.90194" stroke-linecap="round" stroke-linejoin="round"></path><path d="M350.43 344.77C297.784 344.575 281.777 190.557 224.267 189.642C207.792 189.382 189.492 197.078 189.492 233.162C189.492 297.977 270.366 376.467 350.425 344.77" fill="#0028F2"></path><path d="M350.43 344.77C297.784 344.575 281.777 190.557 224.267 189.642C207.792 189.382 189.492 197.078 189.492 233.162C189.492 297.977 270.366 376.467 350.425 344.77" stroke="#0028F2" stroke-width="3.92795" stroke-linecap="round" stroke-linejoin="round"></path><path d="M221.734 262.6C219.202 263.9 216.991 267.026 216.614 271.748C216.503 273.025 216.523 274.311 216.674 275.585C216.86 277.069 217.165 278.536 217.585 279.972C218.08 281.649 218.718 283.281 219.492 284.849C219.9 285.717 220.359 286.584 220.845 287.451C221.331 288.318 221.929 289.215 222.544 290.121C227.474 297.383 232.95 301.19 237.554 302.586C239.529 303.234 241.624 303.428 243.684 303.154C245.283 302.933 246.787 302.262 248.02 301.22C245.878 303.111 244.417 306.492 245.054 311.109C245.537 313.803 246.513 316.384 247.933 318.723C249.931 321.948 252.417 324.844 255.303 327.307C256.136 328.04 256.947 328.725 257.762 329.345C258.577 329.965 259.396 330.502 260.194 331.005C261.648 331.956 263.179 332.783 264.772 333.476C267.738 334.695 270.365 335.284 272.671 335.31C277.31 335.31 280.475 333.446 282.066 331.079C281.19 332.432 280.715 334.006 280.696 335.618C280.689 337.698 281.153 339.752 282.053 341.627C282.599 342.811 283.249 343.944 283.996 345.013C284.891 346.221 285.88 347.358 286.952 348.412C287.533 348.98 288.153 349.552 288.821 350.146C289.155 350.432 289.497 350.718 289.857 351.013C290.217 351.308 290.59 351.551 290.976 351.82C292.633 352.969 294.359 354.018 296.144 354.959C297.097 355.483 298.051 355.882 298.97 356.29C299.89 356.697 300.787 357.048 301.658 357.369C302.53 357.69 303.393 357.98 304.203 358.236C304.994 358.476 305.798 358.674 306.61 358.83C308.054 359.111 309.518 359.283 310.988 359.346C312.236 359.425 313.488 359.364 314.721 359.164C319.304 358.384 322.17 355.917 323.492 352.474C324.446 349.986 324.793 345.473 326.05 341.141C327.307 336.81 329.518 332.644 333.745 330.684C326.479 323.444 319.308 318.809 313.121 316.811C312.376 316.566 311.617 316.362 310.85 316.199C310.108 316.039 309.376 315.939 308.682 315.844C307.386 315.669 306.071 315.686 304.78 315.896C302.369 316.329 300.384 317.513 299.144 319.52C297.991 321.398 297.371 324.064 296.798 326.748C296.226 329.431 295.693 332.145 294.587 334.036C293.633 335.661 292.224 337.357 289.493 335.77C287.481 334.495 286.701 331.911 286.892 328.772C287.083 325.633 288.309 321.888 290.1 318.298C291.875 314.736 294.124 311.432 296.785 308.474C299.304 305.729 301.919 303.743 304.346 303.054C304.034 302.547 303.718 302.053 303.401 301.563C303.085 301.073 302.79 300.574 302.478 300.102C301.854 299.152 301.216 298.259 300.566 297.414C299.916 296.568 299.265 295.745 298.632 294.973C297.999 294.201 297.332 293.473 296.66 292.805C295.988 292.137 295.359 291.461 294.687 290.858C294.015 290.256 293.36 289.688 292.684 289.176C292.008 288.665 291.353 288.166 290.69 287.724C290.047 287.289 289.381 286.888 288.695 286.523C287.449 285.854 286.143 285.304 284.793 284.88C283.573 284.518 282.308 284.325 281.035 284.308C279.881 284.258 278.73 284.44 277.649 284.844C276.567 285.247 275.578 285.864 274.739 286.657C271.501 289.779 269.077 293.815 266.936 297.8C265.847 299.794 264.841 301.749 263.801 303.527C262.863 305.215 261.73 306.787 260.424 308.209C259.79 308.947 258.93 309.456 257.978 309.657C257.444 309.737 256.898 309.668 256.4 309.458C255.733 309.146 255.134 308.704 254.64 308.157C253.745 307.168 253.254 305.879 253.266 304.546C253.24 303.749 253.312 302.953 253.483 302.174C253.67 301.27 253.926 300.381 254.25 299.516C255.581 295.866 258.178 291.782 261.364 287.98C264.484 284.257 268.027 280.91 271.921 278.008C275.494 275.407 278.914 273.629 281.438 273.443C280.271 269.06 278.871 265.244 277.133 262.088C276.347 260.564 275.427 259.113 274.384 257.753C273.49 256.503 272.462 255.354 271.319 254.328C270.329 253.366 269.224 252.532 268.028 251.843C267.746 251.683 267.46 251.531 267.161 251.41C266.862 251.288 266.597 251.128 266.294 251.007C265.739 250.768 265.166 250.573 264.581 250.421C262.338 249.801 259.94 250.086 257.905 251.215C253.136 253.924 248.258 258.152 243.845 262.357C239.431 266.562 235.447 270.672 232.139 272.684C230.53 273.668 228.315 274.176 226.646 271.344C226.3 270.76 226.057 270.121 225.926 269.454C225.815 268.792 225.807 268.116 225.9 267.451C226.146 265.976 226.704 264.57 227.539 263.328C229.273 260.579 232.269 257.865 235.625 255.524C238.901 253.24 242.4 251.294 246.069 249.715C249.407 248.288 252.334 247.452 254.085 247.517C254.05 246.294 253.981 245.115 253.877 243.966C253.829 243.394 253.76 242.834 253.699 242.275C253.639 241.716 253.578 241.156 253.504 240.61C253.361 239.522 253.179 238.473 252.971 237.458C252.763 236.444 252.563 235.434 252.316 234.48C251.484 231.039 250.141 227.742 248.332 224.699C246.71 222.037 244.764 220.047 242.696 218.872C241.714 218.285 240.616 217.917 239.478 217.795C238.341 217.673 237.19 217.8 236.106 218.165C234.034 218.872 230.569 221.404 226.468 224.257C222.367 227.109 217.619 230.274 212.907 231.991C211.129 232.642 208.745 232.386 207.704 229.39C207.38 228.512 207.243 227.575 207.304 226.641C207.364 225.707 207.62 224.795 208.055 223.966C208.883 222.332 210.37 220.905 212.295 219.765C216.141 217.48 221.69 216.353 227.305 216.813C226.988 210.743 225.571 205.952 223.459 202.848C221.348 199.744 218.46 198.352 215.317 199.198C211.429 200.216 207.826 202.114 204.787 204.745C201.748 207.376 199.354 210.669 197.789 214.372C196.948 216.353 196.309 218.414 195.881 220.524C195.443 222.792 195.223 225.098 195.227 227.409C195.296 232.651 196.309 237.838 198.218 242.722C199.077 244.946 200.068 247.117 201.184 249.225C202.141 251.016 203.22 252.74 204.413 254.384C205.427 255.757 206.54 257.054 207.743 258.264C208.761 259.264 209.868 260.168 211.051 260.965C212.837 262.23 214.901 263.047 217.069 263.345C218.663 263.566 220.288 263.307 221.734 262.6Z" fill="white"></path><path d="M274.853 226.966C253.227 226.966 235.113 288.27 235.113 288.27C235.113 288.27 249.473 308.872 268.77 321.441C258.985 346.587 244.79 373.757 244.79 399.744C244.79 423.325 269.901 439.267 272.85 450.738C272.85 450.738 264.226 451.133 255.941 451.133C242.527 451.133 234.52 456.695 234.52 461.824C234.52 465.574 238.647 471.033 248.749 471.033C271.454 471.033 285.262 458.286 296.231 454.098C295.273 449.841 294.137 447.656 294.137 443.363C294.137 433.5 312.905 426.568 334.851 416.635L328.63 413.483L330.715 418.929C334.617 430.418 331.639 443.446 320.059 456.353C320.059 456.353 381.727 465.301 390.341 456.353C394.243 452.29 389.348 443.81 374.733 443.81C362.13 443.81 357.292 449.849 340.661 449.849C340.661 449.849 377.703 430.808 377.703 407.795C377.703 400.616 375.657 397.308 374.135 394.875L370.519 389.213L371.972 396.072C389.413 383.248 402.862 365.893 402.862 340.413C402.862 309.527 380.638 278.242 363.548 255.719L365.039 255.889C365.039 255.889 378.245 257.657 390.341 254.345C395.11 242.245 407.076 221.187 407.076 199.25C416.501 199.25 421.747 189.365 421.747 180.633C421.747 175.17 418.37 169.422 412.985 168.238C411.728 164.293 407.562 162.468 404.384 162.468C402.216 159.944 401.306 158.67 397.161 158.67C391.776 158.67 387.237 167.267 387.237 171.806C386.422 171.663 385.597 171.588 384.77 171.581C378.38 171.581 379.468 178.569 384.024 181.678C385.566 182.737 387.169 183.706 388.824 184.578V186.586C388.824 190.652 391.304 194.593 395.921 196.531V196.692C395.921 210.132 377.395 224.942 377.395 224.942C363.474 223.689 359.347 217.342 346.991 217.342L346.752 217.407C349.501 211.619 353.533 205.528 353.533 200.854C353.533 197.763 352.003 195.018 350.264 191.784C350.874 188.908 351.164 185.974 351.131 183.035C351.131 174.394 346.223 164.011 346.223 164.011C345.018 163.929 343.782 163.89 342.538 163.881C338.674 163.805 334.811 164.053 330.988 164.622C325.933 160.148 317.427 155.349 304.186 155.349C278.082 155.349 269.966 167.622 257.242 167.622C250.275 167.622 246.733 169.968 246.733 175.608C246.733 182.979 253.648 190.05 260.121 190.05H260.702C256.604 194.125 254.519 200.355 254.519 206.598C254.519 218.304 263.151 226.953 274.874 226.953C276.575 226.955 278.274 227.07 279.96 227.296" fill="white"></path><path d="M337.162 172.604C337.162 172.604 328.959 155.773 304.165 155.773C278.061 155.773 269.945 168.047 257.22 168.047C250.249 168.047 246.711 170.388 246.711 176.033C246.711 183.403 253.626 190.47 260.099 190.47" stroke="#0028F2" stroke-width="3.92795" stroke-linecap="round" stroke-linejoin="round"></path><path d="M330.874 156.879C325.606 151.178 318.912 155.028 318.145 161.358" stroke="#0028F2" stroke-width="3.92795" stroke-linecap="round" stroke-linejoin="round"></path><path d="M263.175 187.999C257.422 191.797 254.504 199.193 254.504 206.598C254.504 218.304 263.136 226.953 274.859 226.953C285.533 226.953 295.283 231.575 298.765 235.754" stroke="#0028F2" stroke-width="3.92795" stroke-linecap="round" stroke-linejoin="round"></path><path d="M338.933 194.524C323.828 212.542 299.207 197.619 299.207 197.619C299.207 189.907 304.05 161.635 346.225 164.002C346.225 164.002 351.133 174.381 351.133 183.022C351.133 192.295 348.623 198.569 345.931 198.569C343.238 198.569 338.933 194.524 338.933 194.524Z" stroke="#0028F2" stroke-width="3.92795" stroke-linecap="round" stroke-linejoin="round"></path><circle cx="328.912" cy="184.352" r="1.92358" fill="#0028F2"></circle><circle cx="320.521" cy="190.647" r="1.92358" fill="#0028F2"></circle><circle cx="317.021" cy="182.254" r="1.92358" fill="#0028F2"></circle><path d="M346.225 164.002C346.225 164.002 345.791 172.365 339.496 178.812C334.359 176.076 327.145 171.13 323.633 166.283C329.017 164.683 338.239 163.439 346.225 164.002Z" fill="#0028F2" stroke="#0028F2" stroke-width="3.92795" stroke-linecap="round" stroke-linejoin="round"></path><path d="M343.762 197.958L341.707 214.888L330.69 217.337L330.109 201.3" stroke="#0028F2" stroke-width="3.92795" stroke-linecap="round" stroke-linejoin="round"></path><path d="M274.852 226.953C253.227 226.953 235.113 288.261 235.113 288.261C235.113 288.261 264.824 330.905 296.222 330.905" stroke="#0028F2" stroke-width="3.92795" stroke-linecap="round" stroke-linejoin="round"></path><path d="M302.43 257.649C292.185 265.721 274.141 286.792 271.098 291.14C271.098 300.938 282.14 316.741 305.435 325.391C307.334 333.689 308.634 359.051 300.341 359.051C292.047 359.051 287.867 337.127 297.258 337.127C304.485 337.127 301.763 350.519 301.763 350.519" stroke="#0028F2" stroke-width="3.92795" stroke-linecap="round" stroke-linejoin="round"></path><path d="M297.174 357.92C293.706 359.524 284.337 360.235 283.509 349.565C282.681 338.896 288.846 334.291 293.996 338.375" stroke="#0028F2" stroke-width="3.92795" stroke-linecap="round" stroke-linejoin="round"></path><path d="M286.489 329.609C283.089 333.008 280.926 333.671 277.02 333.875C272.637 334.105 266.68 335.848 266.68 340.916C266.68 345.737 271.657 348.382 276.04 346.721" stroke="#0028F2" stroke-width="3.92795" stroke-linecap="round" stroke-linejoin="round"></path><path d="M284.78 339.52C280.657 338.436 275.676 340.855 275.676 349.253C275.676 357.651 283.731 362.511 289.662 358.583" stroke="#0028F2" stroke-width="3.92795" stroke-linecap="round" stroke-linejoin="round"></path><path d="M407.075 199.241C407.075 221.183 395.101 242.236 390.345 254.336C378.249 257.649 365.043 255.88 365.043 255.88" stroke="#0028F2" stroke-width="3.92795" stroke-linecap="round" stroke-linejoin="round"></path><path d="M346.98 217.337C359.332 217.337 363.455 223.68 377.385 224.933C377.385 224.933 395.911 210.127 395.911 196.683" stroke="#0028F2" stroke-width="3.92795" stroke-linecap="round" stroke-linejoin="round"></path><path d="M254.685 173.12C249.482 173.12 252.444 183.46 257.924 183.46" stroke="#0028F2" stroke-width="3.92795" stroke-linecap="round" stroke-linejoin="round"></path><path d="M275.121 302.933C276.951 295.996 278.009 289.263 277.831 282.864" stroke="#0028F2" stroke-width="3.92795" stroke-linecap="round" stroke-linejoin="round"></path><path d="M384.469 385.649C395.438 374.212 402.869 359.771 402.869 340.838C402.869 340.001 402.869 339.169 402.817 338.332H402.049C402.074 355.706 395.832 372.507 384.469 385.649V385.649Z" stroke="#0028F2" stroke-width="0.433548" stroke-miterlimit="10"></path><path d="M361.809 403.256C370.456 398.951 378.158 392.965 384.466 385.649C377.906 392.491 370.076 398.253 361.809 403.256Z" stroke="#0028F2" stroke-width="0.433548" stroke-miterlimit="10"></path><path d="M344.199 226.429C344.199 218.794 353.521 208.398 353.521 201.283C353.521 198.153 351.951 195.374 350.182 192.083C351.951 195.374 353.521 198.153 353.521 201.283C353.521 208.406 344.199 218.803 344.199 226.429ZM344.199 226.429C344.199 239.197 400.925 288.96 402.815 338.332" stroke="#0028F2" stroke-width="3.92795" stroke-linecap="round" stroke-linejoin="round"></path><path d="M257.09 338.332C257.09 341.75 257.33 345.163 257.81 348.546C261.538 339.351 265.518 330.268 268.939 321.428C265.518 330.268 261.538 339.351 257.81 348.546C260.271 365.825 268.883 381.635 282.065 393.074C295.247 404.512 312.113 410.811 329.566 410.813C341.151 410.813 351.746 408.818 361.458 403.989C370.562 399.948 378.054 393.427 384.466 386.517C395.422 373.818 402.914 356.415 402.914 338.332" stroke="#0028F2" stroke-width="3.92795" stroke-linecap="round" stroke-linejoin="round"></path><path d="M407.078 199.241C416.504 199.241 421.754 189.356 421.754 180.629C421.754 174.503 417.514 168.008 410.95 168.008C404.386 168.008 401.633 174.741 401.633 183.234C401.633 188.87 405.184 190.722 407.893 190.722C411.674 190.722 414.154 186.516 414.154 180.46" stroke="#0028F2" stroke-width="3.92795" stroke-linecap="round" stroke-linejoin="round"></path><path d="M413.021 168.312C411.789 164.31 407.584 162.459 404.389 162.459C399.754 162.459 394.465 168.095 394.465 174.494" stroke="#0028F2" stroke-width="3.92795" stroke-linecap="round" stroke-linejoin="round"></path><path d="M384.028 181.669C379.468 178.565 378.392 171.576 384.774 171.576C391.156 171.576 400.521 176.731 400.521 182.272C400.521 188.758 393.805 188.328 384.028 181.669Z" stroke="#0028F2" stroke-width="3.92795" stroke-linecap="round" stroke-linejoin="round"></path><path d="M404.389 162.459C402.221 159.936 401.307 158.665 397.166 158.665C391.781 158.665 387.242 167.258 387.242 171.802" stroke="#0028F2" stroke-width="3.92795" stroke-linecap="round" stroke-linejoin="round"></path><path d="M388.832 186.581C388.832 191.732 392.812 196.683 400.078 197.619" stroke="#0028F2" stroke-width="3.92795" stroke-linecap="round" stroke-linejoin="round"></path><path d="M299.207 197.633C311.047 209.772 319.181 209.395 330.123 209.395" stroke="#0028F2" stroke-width="3.92795" stroke-linecap="round" stroke-linejoin="round"></path><path d="M299.821 191.94C296.018 191.654 291.986 188.333 289.875 183.321C287.183 176.939 288.626 170.236 293.096 168.351C297.566 166.465 303.38 170.111 306.068 176.493C306.211 176.826 306.341 177.165 306.458 177.503" stroke="#0028F2" stroke-width="3.92795" stroke-linecap="round" stroke-linejoin="round"></path><path d="M297.64 188.242C300.102 188.242 302.097 186.246 302.097 183.785C302.097 181.323 300.102 179.328 297.64 179.328C295.179 179.328 293.184 181.323 293.184 183.785C293.184 186.246 295.179 188.242 297.64 188.242Z" fill="#0028F2" stroke="#0028F2" stroke-width="3.92795" stroke-linecap="round" stroke-linejoin="round"></path><path d="M330.874 156.879C325.606 151.178 318.912 155.028 318.145 161.358" stroke="#0028F2" stroke-width="3.92795" stroke-linecap="round" stroke-linejoin="round"></path><path d="M297.64 188.242C300.102 188.242 302.097 186.246 302.097 183.785C302.097 181.323 300.102 179.328 297.64 179.328C295.179 179.328 293.184 181.323 293.184 183.785C293.184 186.246 295.179 188.242 297.64 188.242Z" fill="#0028F2" stroke="#0028F2" stroke-width="3.92795" stroke-linecap="round" stroke-linejoin="round"></path><path d="M299.821 191.94C296.018 191.654 291.986 188.333 289.875 183.321C287.183 176.939 288.626 170.236 293.096 168.351C297.566 166.465 303.38 170.111 306.068 176.493C306.211 176.826 306.341 177.165 306.458 177.503" stroke="#0028F2" stroke-width="3.92795" stroke-linecap="round" stroke-linejoin="round"></path><path d="M301.473 161.184C294.827 157.282 286.485 158.925 280.398 168.45" stroke="#0028F2" stroke-width="3.90194" stroke-linecap="round" stroke-linejoin="round"></path><path d="M402.916 338.332C402.99 347.897 401.17 357.382 397.561 366.241C393.952 375.099 388.625 383.156 381.887 389.946C375.149 396.735 367.134 402.125 358.304 405.802C349.474 409.48 340.003 411.373 330.438 411.373C320.872 411.373 311.401 409.48 302.571 405.802C293.741 402.125 285.726 396.735 278.988 389.946C272.251 383.156 266.924 375.099 263.315 366.241C259.705 357.382 257.885 347.897 257.959 338.332" stroke="#0028F2" stroke-width="3.90194" stroke-linecap="round" stroke-linejoin="round"></path><path d="M332.637 108.244V18.7114" stroke="#0028F2" stroke-width="3.90194" stroke-linecap="round" stroke-linejoin="round"></path><path d="M332.636 18.4382C336.967 18.4382 340.479 14.9268 340.479 10.5953C340.479 6.26382 336.967 2.75244 332.636 2.75244C328.304 2.75244 324.793 6.26382 324.793 10.5953C324.793 14.9268 328.304 18.4382 332.636 18.4382Z" fill="#0028F2" stroke="#0028F2" stroke-width="3.90194" stroke-linecap="round" stroke-linejoin="round"></path><path d="M341.853 466.12C341.87 466.453 341.816 466.786 341.697 467.097C341.577 467.408 341.393 467.691 341.157 467.926C340.922 468.162 340.639 468.346 340.328 468.466C340.017 468.585 339.684 468.639 339.351 468.622H326.18C325.848 468.633 325.518 468.576 325.209 468.455C324.901 468.333 324.62 468.149 324.386 467.915C324.151 467.68 323.967 467.4 323.845 467.091C323.724 466.782 323.667 466.452 323.679 466.12C323.661 465.787 323.714 465.454 323.833 465.142C323.953 464.83 324.136 464.547 324.372 464.311C324.608 464.075 324.891 463.891 325.202 463.771C325.514 463.651 325.847 463.597 326.18 463.614H330.121V452.585H326.163C325.827 452.599 325.493 452.545 325.179 452.426C324.865 452.308 324.578 452.127 324.336 451.894C324.094 451.662 323.901 451.383 323.77 451.075C323.638 450.766 323.57 450.434 323.57 450.098C323.57 449.763 323.638 449.431 323.77 449.122C323.901 448.813 324.094 448.535 324.336 448.302C324.578 448.07 324.865 447.889 325.179 447.771C325.493 447.652 325.827 447.598 326.163 447.612H339.334C339.666 447.6 339.996 447.656 340.305 447.778C340.614 447.899 340.895 448.083 341.13 448.318C341.365 448.552 341.548 448.833 341.67 449.142C341.791 449.451 341.848 449.782 341.836 450.114C341.852 450.445 341.798 450.776 341.678 451.086C341.558 451.395 341.374 451.675 341.137 451.909C340.901 452.142 340.619 452.323 340.308 452.439C339.997 452.556 339.665 452.605 339.334 452.585H335.376V463.614H339.334C339.667 463.6 340 463.656 340.311 463.776C340.622 463.897 340.905 464.081 341.141 464.316C341.378 464.552 341.563 464.833 341.686 465.144C341.808 465.454 341.865 465.787 341.853 466.12Z" fill="#0028F2"></path><path d="M341.853 572.383C341.87 572.716 341.818 573.05 341.698 573.361C341.579 573.673 341.395 573.956 341.159 574.192C340.923 574.428 340.641 574.612 340.329 574.732C340.018 574.852 339.685 574.906 339.351 574.889H326.18C325.848 574.9 325.517 574.843 325.208 574.722C324.899 574.6 324.619 574.415 324.384 574.18C324.149 573.945 323.966 573.664 323.844 573.355C323.723 573.046 323.666 572.715 323.679 572.383C323.662 572.05 323.715 571.717 323.835 571.406C323.954 571.095 324.138 570.813 324.374 570.577C324.61 570.341 324.892 570.157 325.203 570.038C325.514 569.918 325.847 569.865 326.18 569.881H330.121V558.852H326.163C325.827 558.866 325.493 558.812 325.179 558.693C324.865 558.575 324.578 558.394 324.336 558.162C324.094 557.929 323.901 557.65 323.77 557.342C323.638 557.033 323.57 556.701 323.57 556.366C323.57 556.03 323.638 555.698 323.77 555.389C323.901 555.081 324.094 554.802 324.336 554.57C324.578 554.337 324.865 554.156 325.179 554.038C325.493 553.919 325.827 553.865 326.163 553.879H339.334C339.666 553.867 339.996 553.923 340.305 554.045C340.614 554.166 340.895 554.35 341.13 554.585C341.365 554.82 341.548 555.1 341.67 555.409C341.791 555.718 341.848 556.049 341.836 556.381C341.852 556.712 341.798 557.043 341.678 557.353C341.558 557.662 341.374 557.943 341.137 558.176C340.901 558.409 340.619 558.59 340.308 558.706C339.997 558.823 339.665 558.873 339.334 558.852H335.376V569.881H339.334C339.667 569.867 339.999 569.922 340.31 570.043C340.621 570.164 340.903 570.347 341.14 570.582C341.376 570.817 341.562 571.098 341.684 571.408C341.807 571.718 341.865 572.05 341.853 572.383Z" fill="#0028F2"></path><path d="M341.801 476.651V492.376C341.801 495.653 338.033 496.278 336.459 494.015L328.981 483.54V492.718C328.953 493.396 328.665 494.037 328.175 494.507C327.686 494.977 327.034 495.239 326.356 495.239C325.677 495.239 325.025 494.977 324.536 494.507C324.047 494.037 323.758 493.396 323.73 492.718V476.989C323.73 473.716 327.528 473.131 329.106 475.355L336.55 485.825V476.651C336.536 476.297 336.593 475.944 336.719 475.613C336.844 475.282 337.035 474.98 337.28 474.725C337.526 474.469 337.82 474.266 338.146 474.127C338.471 473.989 338.822 473.917 339.176 473.917C339.53 473.917 339.88 473.989 340.206 474.127C340.531 474.266 340.826 474.469 341.071 474.725C341.316 474.98 341.507 475.282 341.632 475.613C341.758 475.944 341.815 476.297 341.801 476.651Z" fill="#0028F2"></path><path d="M341.556 504.394L335.347 520.192C335.165 520.732 334.818 521.201 334.355 521.533C333.893 521.865 333.337 522.044 332.768 522.044C332.198 522.044 331.643 521.865 331.18 521.533C330.717 521.201 330.37 520.732 330.188 520.192L323.98 504.377C322.527 500.635 327.747 499.031 328.952 502.521L332.785 513.394L336.583 502.521C337.788 499.048 343.008 500.652 341.556 504.394Z" fill="#0028F2"></path><path d="M322.25 537.821C322.25 531.578 326.585 526.982 332.785 526.982C338.985 526.982 343.286 531.556 343.286 537.821C343.286 544.085 338.95 548.633 332.785 548.633C326.62 548.633 322.25 544.038 322.25 537.821ZM338.035 537.821C338.035 534.482 335.868 531.981 332.785 531.981C329.703 531.981 327.522 534.5 327.522 537.821C327.522 541.142 329.69 543.626 332.807 543.626C335.924 543.626 338.035 541.155 338.035 537.821Z" fill="#0028F2"></path><path d="M323.617 590.952C323.617 584.527 328.005 580.139 334.525 580.139C336.996 580.139 339.342 580.881 340.673 581.93C343.422 584.097 341.011 587.709 337.859 586.07C336.814 585.439 335.611 585.118 334.391 585.147C330.84 585.147 328.863 587.618 328.863 590.952C328.863 594.286 330.84 596.761 334.391 596.761C335.612 596.79 336.816 596.468 337.859 595.834C341.011 594.199 343.422 597.78 340.673 599.974C339.342 601.023 336.996 601.769 334.525 601.769C328.022 601.769 323.617 597.364 323.617 590.952Z" fill="#0028F2"></path><path d="M328.986 620.026V623.022H339.339C339.672 623.011 340.003 623.069 340.312 623.193C340.621 623.317 340.901 623.503 341.135 623.74C341.369 623.977 341.551 624.259 341.67 624.57C341.789 624.881 341.843 625.212 341.828 625.545C341.845 625.878 341.792 626.211 341.672 626.522C341.552 626.833 341.368 627.115 341.133 627.351C340.897 627.587 340.614 627.77 340.303 627.89C339.992 628.01 339.659 628.063 339.326 628.046H326.359C326.011 628.057 325.665 627.997 325.341 627.869C325.017 627.74 324.723 627.547 324.477 627.301C324.231 627.055 324.038 626.761 323.91 626.437C323.781 626.114 323.721 625.767 323.732 625.419V609.664C323.722 609.316 323.782 608.97 323.911 608.647C324.039 608.323 324.233 608.03 324.479 607.784C324.725 607.538 325.018 607.344 325.342 607.216C325.665 607.088 326.011 607.027 326.359 607.037H339.339C339.667 607.027 339.993 607.084 340.298 607.205C340.603 607.325 340.88 607.506 341.112 607.737C341.345 607.967 341.529 608.243 341.652 608.547C341.775 608.85 341.835 609.176 341.828 609.504C341.845 609.835 341.791 610.166 341.671 610.476C341.55 610.785 341.366 611.065 341.13 611.299C340.894 611.532 340.611 611.713 340.3 611.829C339.99 611.946 339.658 611.995 339.326 611.975H328.986V615.01H337.657C337.989 614.998 338.32 615.054 338.629 615.175C338.938 615.297 339.218 615.481 339.453 615.715C339.688 615.95 339.872 616.231 339.993 616.54C340.115 616.849 340.171 617.179 340.159 617.511C340.176 617.845 340.124 618.178 340.004 618.489C339.885 618.801 339.701 619.084 339.465 619.32C339.229 619.557 338.947 619.741 338.635 619.861C338.324 619.981 337.991 620.034 337.657 620.017L328.986 620.026Z" fill="#0028F2"></path><path d="M393.853 283.865C406.651 298.912 413.665 318.028 413.636 337.781C413.636 383.815 376.316 421.131 330.282 421.131C284.248 421.131 246.945 383.815 246.945 337.781C246.945 335.469 247.039 333.171 247.227 330.888" stroke="#0028F2" stroke-width="4.00165" stroke-linecap="round" stroke-linejoin="round"></path><path d="M253.674 392.213L129.883 755.913H145.495L253.674 639.8V392.213Z" fill="white" stroke="#0028F2" stroke-width="3.90194" stroke-linecap="round" stroke-linejoin="round"></path><path d="M410.715 392.213L534.51 755.913H518.898L410.715 639.8V392.213Z" fill="white" stroke="#0028F2" stroke-width="3.90194" stroke-linecap="round" stroke-linejoin="round"></path></g><defs><clipPath id="clip0"><rect width="703.242" height="757.062" fill="white" transform="translate(0 0.801514)"></rect></clipPath></defs></svg>