<svg xmlns="http://www.w3.org/2000/svg" width="307px" height="422px" viewBox="0 0 607.58 791.6"><defs><style>.cls-1,.cls-10,.cls-3,.cls-8{fill:#0028f2;}.cls-2{fill:#ff7846;}.cls-10,.cls-3,.cls-6,.cls-7,.cls-8,.cls-9{stroke:#0028f2;}.cls-10,.cls-3,.cls-7,.cls-8,.cls-9{stroke-linecap:round;stroke-linejoin:round;}.cls-3{stroke-width:9.06px;}.cls-4,.cls-6,.cls-9{fill:#fff;}.cls-5,.cls-7{fill:none;}.cls-6{stroke-miterlimit:10;stroke-width:1.85px;}.cls-7,.cls-8{stroke-width:9px;}.cls-10,.cls-9{stroke-width:9.59px;}</style></defs><g id="Layer_2" data-name="Layer 2" transform="matrix(-1, 0, 0, 1, 604.839905, 0)"><g id="Layer_1-2" data-name="Layer 1"><path class="cls-1" d="M46.83,107.37A210.38,210.38,0,0,0,11.45,101V242a86.73,86.73,0,0,1,11.17-2.17Z"></path><path class="cls-2" d="M80.35,120.11a182.17,182.17,0,0,0-33.66-12.78L22.58,239.86a47.85,47.85,0,0,1,11.3-.06Z"></path><path class="cls-1" d="M109,137.59a198.69,198.69,0,0,0-28.55-17.43L33.92,239.8a62.4,62.4,0,0,1,13.44,3.12Z"></path><path class="cls-2" d="M131.34,156a260.94,260.94,0,0,0-22.43-18.49L47.3,242.9A130.75,130.75,0,0,1,64,250.12Z"></path><path class="cls-1" d="M148.71,172.65c-5.08-5-10.77-10.61-17.31-16.59L64,250.15c6.15,3.1,12.9,6.89,20.45,11.07Z"></path><path class="cls-2" d="M162.09,185.43c-3.92-3.53-8.37-7.86-13.45-12.84L84.38,261.17c7.55,4.17,15.93,8.76,25.45,13.16Z"></path><path class="cls-1" d="M172.51,193.84a100,100,0,0,1-10.38-8.37l-52.21,88.9a170.79,170.79,0,0,0,32,11.29Z"></path><path class="cls-2" d="M182.28,198.86a39.41,39.41,0,0,1-9.81-5l-30.69,91.81a132.64,132.64,0,0,0,36,3.6Z"></path><path class="cls-1" d="M195.28,201a50.92,50.92,0,0,1-6.75-.68l-.82-.11-.83-.19-1.64-.34-.81-.16c-.26-.06-.48-.16-.72-.23l-1.4-.45-4.38,90.36,4.44-.25c.74-.05,1.49-.08,2.21-.15l2.11-.25,4.21-.52,2.1-.28,2.09-.37a139,139,0,0,0,16.42-3.82Z"></path><path class="cls-2" d="M210.64,199.48A62,62,0,0,1,195.22,201l16.17,82.6a149,149,0,0,0,29.2-12.29Z"></path><path class="cls-1" d="M229.84,193.61a147.28,147.28,0,0,1-19.14,5.86l30,71.82a229.25,229.25,0,0,0,22.92-14.63Z"></path><path class="cls-2" d="M252.89,185c-8.4,3-16.09,6.06-23.14,8.63l33.76,63.07c6.71-4.79,12.66-9.29,18.25-13.22Z"></path><path class="cls-1" d="M280.17,177.22A198.49,198.49,0,0,0,253,185l28.85,58.47a147.18,147.18,0,0,1,16-10.07Z"></path><path class="cls-2" d="M309.8,174.63a131.78,131.78,0,0,0-29.75,2.61l17.72,56.17a76.52,76.52,0,0,1,16.09-6.35Z"></path><path class="cls-1" d="M338.55,178.82a126.46,126.46,0,0,0-28.65-4.18l4,52.41a76.33,76.33,0,0,1,18-2.47Z"></path><path class="cls-2" d="M364,188a168.52,168.52,0,0,0-25.56-9.2l-6.58,45.8a122.3,122.3,0,0,1,20,1.45Z"></path><path class="cls-3" d="M389.56,645.45c-121.43-.45-158.35-355.7-291-357.81C60.59,287,18.36,304.79,18.36,388c0,149.5,186.54,330.54,371.2,257.43"></path><g id="back"><path id="back-2" data-name="back" class="cls-4" d="M309.58,224.44c-49.89,0-91.66,141.41-91.66,141.41s33.11,47.52,77.63,76.5C273,500.39,240.23,563,240.23,623c0,54.39,57.92,91.17,64.72,117.62,0,0-19.89.91-39,.91-30.94,0-49.4,12.83-49.4,24.66,0,8.65,9.51,21.24,32.81,21.24,52.37,0,84.23-29.4,109.52-39.06-2.21-9.82-4.82-14.86-4.82-24.76,0-22.75,43.29-38.74,93.9-61.64l-14.35-7.28,4.81,12.56c9,26.51,2.13,56.56-24.57,86.32,0,0,142.23,20.64,162.11,0,9-9.37-2.29-28.92-36-28.92-29.06,0-40.23,13.92-78.59,13.92,0,0,85.44-43.92,85.44-97,0-16.55-4.72-24.19-8.23-29.8l-8.34-13.06,3.36,15.82c40.22-29.58,71.24-69.61,71.24-128.38,0-71.24-51.25-143.4-90.68-195.35L498.57,273.9l-26.92-43.24s-2.36-5.33-2.06-10.24c.43-6.94,5.79-18,5.79-18C481.75,189,491,175,491,164.21c0-7.12-3.53-13.46-7.55-20.92a92.23,92.23,0,0,0,2-20.18c0-19.93-11.33-43.88-11.33-43.88-2.78-.19-5.62-.28-8.49-.3A160.81,160.81,0,0,0,439,80.64c-11.65-10.31-31.28-21.38-61.82-21.38-60.2,0-78.92,28.31-108.27,28.31-16.08,0-24.25,5.4-24.25,18.42,0,17,16,33.3,30.88,33.3l1.34,0c-9.45,9.41-14.25,23.77-14.25,38.17,0,27,19.9,46.95,46.95,46.95a88.61,88.61,0,0,1,11.72.79"></path><path class="cls-4" d="M544.59,337.47C559.48,254.7,513.66,209,473.3,209H431.18V343.47Z"></path></g><path class="cls-4" d="M92.74,455.92C86.9,459,81.8,466.12,80.93,477a43.46,43.46,0,0,0,.14,8.86A64.62,64.62,0,0,0,83.17,496a70.51,70.51,0,0,0,4.4,11.25c.94,2,2,4,3.12,6s2.5,4.07,3.92,6.16c11.37,16.75,24,25.53,34.62,28.74a31.73,31.73,0,0,0,14.14,1.32,19.67,19.67,0,0,0,9.95-4.47c-4.94,4.37-8.31,12.16-6.84,22.82a51.25,51.25,0,0,0,6.64,17.56,84.76,84.76,0,0,0,17,19.8c1.92,1.68,3.79,3.27,5.67,4.7s3.77,2.66,5.61,3.83a71.37,71.37,0,0,0,10.56,5.7c6.84,2.81,12.9,4.16,18.22,4.23,10.7.05,18-4.3,21.67-9.77a19.71,19.71,0,0,0-3.12,10.46,31.7,31.7,0,0,0,3.13,13.86,50.83,50.83,0,0,0,4.48,7.82,65.61,65.61,0,0,0,6.82,7.83c1.34,1.32,2.77,2.64,4.31,4,.77.65,1.56,1.31,2.39,2s1.69,1.25,2.58,1.87a115.16,115.16,0,0,0,11.92,7.24c2.2,1.21,4.4,2.13,6.52,3.07s4.19,1.74,6.2,2.49,4,1.41,5.87,2,3.76,1,5.55,1.37a66.84,66.84,0,0,0,10.06,1.31,38.1,38.1,0,0,0,8.61-.41c10.57-1.8,17.18-7.49,20.23-15.44,2.2-5.74,3-16.14,5.9-26.13s8-19.61,17.75-24.12c-16.76-16.7-33.3-27.4-47.57-32a53.3,53.3,0,0,0-5.24-1.42c-1.71-.37-3.4-.59-5-.82a30.27,30.27,0,0,0-9,.13c-5.56,1-10.14,3.72-13,8.36-2.66,4.33-4.09,10.48-5.41,16.67s-2.55,12.44-5.1,16.81c-2.2,3.75-5.45,7.66-11.75,3.95-4.64-2.94-6.44-8.91-6-16.14s3.27-15.88,7.4-24.16a101.25,101.25,0,0,1,15.42-22.66c5.81-6.33,11.84-10.91,17.44-12.5-.72-1.18-1.45-2.32-2.18-3.44s-1.41-2.28-2.13-3.37q-2.16-3.28-4.41-6.2c-1.53-1.91-3-3.85-4.46-5.64s-3-3.45-4.55-5-3-3.11-4.55-4.49a60.13,60.13,0,0,0-4.62-3.88c-1.58-1.16-3.07-2.33-4.6-3.35a48.38,48.38,0,0,0-4.6-2.77,52.74,52.74,0,0,0-9-3.8,32.08,32.08,0,0,0-8.67-1.31A19.84,19.84,0,0,0,215,511.35c-7.47,7.2-13.06,16.51-18,25.7-2.51,4.6-4.83,9.1-7.23,13.21a57.4,57.4,0,0,1-7.79,10.8,10.34,10.34,0,0,1-5.64,3.34,7,7,0,0,1-3.64-.46,12.64,12.64,0,0,1-4.06-3,12.23,12.23,0,0,1-3.17-8.33,22.15,22.15,0,0,1,.5-5.46,41.25,41.25,0,0,1,1.75-6.08c3.07-8.42,9.06-17.85,16.41-26.61a143.4,143.4,0,0,1,24.35-23c8.24-6,16.13-10.1,21.95-10.53-2.69-10.12-5.92-18.92-9.93-26.19a66.37,66.37,0,0,0-6.34-10,49.2,49.2,0,0,0-7.07-7.91,38.66,38.66,0,0,0-7.59-5.72c-.65-.38-1.31-.72-2-1s-1.3-.64-1.95-.92a27.51,27.51,0,0,0-3.95-1.35,20.44,20.44,0,0,0-15.4,1.83c-11,6.25-22.25,16-32.43,25.7s-19.37,19.18-27,23.82c-3.71,2.27-8.82,3.43-12.67-3.09a13.85,13.85,0,0,1-1.66-4.36,15.2,15.2,0,0,1-.06-4.62,24.09,24.09,0,0,1,3.78-9.51c4-6.34,10.91-12.61,18.65-18a135.82,135.82,0,0,1,24.09-13.4c7.7-3.29,14.45-5.23,18.49-5.07q-.12-4.23-.48-8.19c-.11-1.32-.27-2.61-.41-3.91s-.28-2.57-.45-3.83c-.33-2.51-.75-4.94-1.23-7.27s-.94-4.67-1.51-6.88a81.75,81.75,0,0,0-9.19-22.55c-3.74-6.15-8.23-10.73-13-13.45a18.28,18.28,0,0,0-15.2-1.62c-4.78,1.63-12.77,7.47-22.23,14s-20.41,13.88-31.28,17.85c-4.1,1.5-9.6.9-12-6a15.41,15.41,0,0,1,.81-12.51c1.91-3.78,5.34-7.06,9.78-9.7,8.87-5.27,21.67-7.87,34.62-6.8-.73-14-4-25.06-8.87-32.21s-11.53-10.37-18.78-8.42a60.53,60.53,0,0,0-40.43,35,73.59,73.59,0,0,0-4.4,14.19,83,83,0,0,0-1.51,15.88,100.59,100.59,0,0,0,6.89,35.41,138.71,138.71,0,0,0,6.84,15.05A103.48,103.48,0,0,0,52.77,437a80.67,80.67,0,0,0,7.68,9,54.34,54.34,0,0,0,7.63,6.23A31.42,31.42,0,0,0,82,457.68,18.59,18.59,0,0,0,92.74,455.92Z"></path><path class="cls-5" d="M305.06,740.83c-6.8-26.46-64.72-63.24-64.72-117.62,0-92.73,78.37-191.9,76.21-270.57L183.49,276.55H.51L0,587.71,257.36,698.32Z"></path><path class="cls-6" d="M437.06,667.44c8.91,26.28,2.11,56.07-24.36,85.58,0,0,141,20.46,160.72,0,8.94-9.29-2.27-28.68-35.67-28.68-28.81,0-39.88,13.81-77.91,13.81,0,0,84.7-43.54,84.7-96.16,0-16.41-4.68-24-8.16-29.55l-.11.06C505.86,636,469.41,653,437.07,667.43Z"></path><path class="cls-7" d="M452.61,102.72s-18.78-38.55-75.56-38.55c-59.78,0-78.36,28.11-107.5,28.11-16,0-24.08,5.37-24.08,18.29,0,16.9,15.84,33.07,30.67,33.07"></path><path class="cls-7" d="M372.53,80.78c-15.9-7.94-34.84-2.86-47.36,20"></path><path class="cls-7" d="M437,61.39c-15.85-8-27.14,5.58-23.74,19.77"></path><path class="cls-7" d="M456.67,152.91c-34.6,41.27-91,7.09-91,7.09,0-17.66,11.09-82.44,107.67-77,0,0,11.25,23.77,11.25,43.56,0,21.23-5.75,35.6-11.89,35.6S456.67,152.91,456.67,152.91Z"></path><path class="cls-8" d="M473.36,83s-1,19.15-15.4,33.91c-11.77-6.26-28.29-17.59-36.33-28.69C434,84.59,455.08,81.73,473.36,83Z"></path><polyline class="cls-7" points="467.73 160.78 463.02 199.55 437.79 205.16 436.46 168.44"></polyline><line class="cls-7" x1="414.36" y1="142.3" x2="414.36" y2="142.3"></line><line class="cls-7" x1="405.44" y1="123.48" x2="405.44" y2="123.48"></line><line class="cls-7" x1="433.1" y1="127.87" x2="433.1" y2="127.87"></line><path class="cls-7" d="M373.08,297.48c-23.46,18.48-64.79,66.74-71.75,76.69,0,22.44,25.29,58.63,78.63,78.43,4.34,19,7.33,77.09-11.67,77.09s-28.56-50.22-7.06-50.22c16.56,0,10.32,30.67,10.32,30.67"></path><path class="cls-7" d="M361.06,527.11c-8,3.66-29.4,5.29-31.3-19.14s12.22-35,24-25.63"></path><path class="cls-7" d="M336.57,462.27c-7.78,7.78-12.74,9.3-21.68,9.77-10,.52-23.68,4.52-23.68,16.12,0,11,11.4,17.1,21.44,13.3"></path><path class="cls-7" d="M332.66,485c-9.44-2.48-20.86,3.06-20.86,22.3s18.46,30.35,32,21.36"></path><path class="cls-7" d="M263.69,103.9c-11.95,0-5.14,23.68,7.42,23.68"></path><path class="cls-7" d="M537.29,611.71c3.49,5.57,8.17,13.15,8.17,29.59,0,52.69-84.82,96.3-84.82,96.3,38.08,0,49.16-13.83,78-13.83,33.45,0,44.68,19.42,35.72,28.72-19.74,20.49-160.95,0-160.95,0,26.51-29.55,33.32-59.39,24.4-85.71"></path><path class="cls-7" d="M310.54,401.18c4.19-15.92,6.61-31.3,6.21-46"></path><path class="cls-7" d="M482.43,147.3c4.05,7.54,7.65,13.91,7.65,21.07,0,16.32-21.35,40.12-21.35,57.61,0,29.73,134.35,147.09,134.35,262,0,165.92-249,181.38-249,235.76,0,9.82,2.6,14.83,4.79,24.58-25.12,9.59-56.74,38.78-108.74,38.78-23.13,0-32.58-12.5-32.58-21.08,0-11.75,18.33-24.49,49-24.49,19,0,38.74-.9,38.74-.9-6.75-26.27-64.26-62.79-64.26-116.79,0-59.84,32.89-122.4,55.31-180.3"></path><line class="cls-7" x1="372.19" y1="99.77" x2="345.32" y2="115.23"></line><path class="cls-7" d="M365.69,160c27.16,27.8,45.75,27,70.77,27"></path><path class="cls-7" d="M473.3,209c40.36,0,86.18,45.68,71.29,128.45"></path><path class="cls-9" d="M455.8,54.57a127.94,127.94,0,1,0-183.74,176l.16-.1c16.27-12.21,31.77-15,42.53-14.93,22.53,0,38,9.7,55.28,9.7,8.34,0,16.1-6.84,16.1-17.22,0-24.81-63.67-52.35-63.67-98.83,0-50.38,42-66.39,76.16-66.39,32.86,0,57.1,11.19,57.1,11.19Z"></path><circle class="cls-10" cx="280.86" cy="151.94" r="24.98"></circle><path class="cls-10" d="M455.8,54.57C466.12,59,451,73.1,451,83.32l-13.5,1.45s-30.13-33.84-103-15.07C351.9,45,403.16,32.24,455.8,54.57Z"></path><path class="cls-7" d="M358.86,465.24c-71.9,0-139.94-97.66-139.94-97.66s24.48-140.4,94.3-140.4c24.44,0,43.47,10.59,51.45,20.16"></path><polygon class="cls-1" points="250.95 228.93 247.84 232.66 244.91 236.44 243.47 238.34 242.1 240.26 239.39 244.11 264.22 263.6 266.95 260.77 268.3 259.35 269.7 258.01 272.49 255.35 275.34 252.84 250.95 228.93"></polygon><path class="cls-2" d="M265,214.8A129.43,129.43,0,0,0,250.9,229l24.39,23.89A93.29,93.29,0,0,1,287,244.26Z"></path><path class="cls-1" d="M282.82,202.78a97.46,97.46,0,0,0-17.75,12L287,244.23a58.21,58.21,0,0,1,11.86-5.55Z"></path><path class="cls-2" d="M304.11,195.14a83.94,83.94,0,0,0-21.37,7.68l16.07,35.88a42.39,42.39,0,0,1,11.56-2.13Z"></path><path class="cls-1" d="M327,193.51a89.14,89.14,0,0,0-22.78,1.61l6.23,41.45a45.93,45.93,0,0,1,11.6,1.16Z"></path><path class="cls-2" d="M348.26,196.78a115.59,115.59,0,0,0-21.39-3.27L322,237.72a71.45,71.45,0,0,1,12.25,4Z"></path><path class="cls-1" d="M367.49,202.78a181,181,0,0,0-19.17-6l-14.07,44.93a135.33,135.33,0,0,1,13,6.41Z"></path><path class="cls-2" d="M384.8,209.76c-5.56-2.38-11.32-4.77-17.38-7L347.18,248.1c4.44,2.45,9,5.17,13.62,8.07Z"></path><polygon class="cls-1" points="400.93 216.82 384.85 209.79 360.84 256.19 375.24 265.27 400.93 216.82"></polygon><path class="cls-2" d="M415.94,223.09c-4.87-1.9-9.89-4-15.07-6.29l-25.69,48.43c5,3.12,10.13,6.31,15.59,9.46Z"></path><path class="cls-1" d="M430,227.92c-4.47-1.28-9.17-2.92-14-4.81l-25.16,51.61c5.46,3.14,11.24,6.25,17.47,9.13Z"></path><path class="cls-2" d="M442.6,230.56A82.23,82.23,0,0,1,430,227.9l-21.74,55.92a146.11,146.11,0,0,0,20.22,7.7Z"></path><path class="cls-1" d="M453.22,230.64a45.34,45.34,0,0,1-10.59-.07l-14.11,61a111.36,111.36,0,0,0,23.55,4.27Z"></path><path class="cls-2" d="M461.86,228.44a33.8,33.8,0,0,1-8.68,2.21L452,295.8a101.17,101.17,0,0,0,25.5-1.43Z"></path><path class="cls-1" d="M469.9,224.05a40.75,40.75,0,0,1-8,4.38l15.68,65.93a108.25,108.25,0,0,0,24.21-7.6Z"></path><path class="cls-2" d="M478.06,217.32a68.14,68.14,0,0,1-8.19,6.75l31.81,62.73a134.16,134.16,0,0,0,20.86-11.69Z"></path></g></g></svg>