<svg xmlns="http://www.w3.org/2000/svg" width="307px" height="422px" viewBox="0 0 607.58 791.6"><defs><style>.cls-1,.cls-4{fill:none;}.cls-1,.cls-3,.cls-4,.cls-5,.cls-7,.cls-8{stroke:#0028f2;stroke-linecap:round;stroke-linejoin:round;}.cls-1,.cls-7,.cls-8{stroke-width:9px;}.cls-2,.cls-5,.cls-8{fill:#fff;}.cls-3{fill:#0028f2;}.cls-3,.cls-4,.cls-5{stroke-width:9.06px;}.cls-6{clip-path:url(#clip-path);}.cls-7{fill:#2b3990;}.cls-9{fill:#ff7846;}</style><clipPath id="clip-path" transform="translate(212.37)"><path class="cls-1" d="M606.19,122.57c0,50.24-27.43,98.46-38.31,126.17-27.71,7.59-57.94,3.54-57.94,3.54"></path></clipPath></defs><g id="Layer_2" data-name="Layer 2" transform="matrix(-1, 0, 0, 1, 973.960022, 0)"><g id="Layer_1-2" data-name="Layer 1"><g id="back"><path id="back-2" data-name="back" class="cls-2" d="M295.82,173.59c-49.88,0-91.66,141.4-91.66,141.4s33.12,47.53,77.63,76.51c-22.57,58-55.31,120.67-55.31,180.61,0,54.39,57.92,91.17,64.72,117.62,0,0-19.89.91-39,.91-30.94,0-49.41,12.83-49.41,24.66,0,8.65,9.52,21.24,32.82,21.24,52.37,0,84.22-29.4,109.52-39.06-2.21-9.82-4.83-14.86-4.83-24.76,0-22.75,43.3-38.74,93.91-61.64l-14.35-7.28,4.81,12.56c9,26.5,2.13,56.56-24.57,86.32,0,0,142.23,20.64,162.1,0,9-9.37-2.29-28.92-36-28.92-29.07,0-40.23,13.92-78.59,13.92,0,0,85.44-43.92,85.44-97,0-16.55-4.72-24.19-8.23-29.8l-8.34-13.06,3.35,15.82c40.23-29.58,71.25-69.61,71.25-128.38,0-71.24-51.26-143.4-90.68-195.35l3.45.39-46-60.5s-2.36-5.33-2.06-10.24c.43-6.94,5.79-18,5.79-18,6.37-13.36,15.64-27.4,15.64-38.19,0-7.12-3.52-13.46-7.54-20.92a92.23,92.23,0,0,0,2-20.18c0-19.93-11.33-43.88-11.33-43.88-2.78-.19-5.63-.28-8.49-.3a160.74,160.74,0,0,0-26.7,1.71C413.59,19.48,394,8.4,363.43,8.4c-60.2,0-78.92,28.31-108.28,28.31-16.07,0-24.24,5.41-24.24,18.43,0,17,16,33.3,30.88,33.3l1.34,0c-9.45,9.41-14.25,23.77-14.25,38.17,0,27,19.9,47,46.94,47a88.65,88.65,0,0,1,11.73.79" transform="translate(212.37)"></path><path class="cls-2" d="M633.08,46.52c-4.38-.5-8.41.36-11.42,5.26a21.72,21.72,0,0,0-4.23-.69c-1.53-7.21-5.58-10-10.51-10.52-7.17-.81-13.39,2-15.74,20.15.69-14.56-4.39-19.39-11.1-20.14-7.36-.83-13.73,2.13-15.92,21.67-1,9.35.12,15.68,2.64,19.6-12.36,1-16.06,4.9-16.06,9.51s2.55,8.32,14.87,9.44c2.16,6.5,7.26,12.23,15,15.5v.42c0,30.78-42.42,64.69-42.42,64.69-31.89-2.87-41.35-17.4-69.64-17.4H397.45l32.71,72.16,79.78,16.11s30.23,4,57.94-3.54c10.89-27.7,38.32-75.93,38.32-126.17l-.17-.12c18.82-1.41,32.83-16.93,34.59-38a45.71,45.71,0,0,0,3.2-13.27C645.85,53.07,640.45,47.34,633.08,46.52Z" transform="translate(212.37)"></path></g><path class="cls-3" d="M375.73,594.35c-121.43-.45-158.35-355.7-291-357.81-38-.6-80.21,17.15-80.21,100.38,0,149.5,186.54,330.54,371.2,257.43" transform="translate(212.37)"></path><path class="cls-2" d="M78.9,404.82c-5.84,3-10.93,10.21-11.8,21.1a42.65,42.65,0,0,0,.14,8.85,64.62,64.62,0,0,0,2.1,10.12,70.51,70.51,0,0,0,4.4,11.25c.94,2,2,4,3.12,6s2.5,4.07,3.92,6.16c11.37,16.75,24,25.53,34.61,28.75a31.91,31.91,0,0,0,14.15,1.31,19.66,19.66,0,0,0,10-4.46c-4.94,4.36-8.31,12.16-6.84,22.81a51.25,51.25,0,0,0,6.64,17.56,84.56,84.56,0,0,0,17,19.8c1.92,1.69,3.79,3.27,5.67,4.7s3.77,2.66,5.61,3.83a71.37,71.37,0,0,0,10.56,5.7c6.84,2.81,12.9,4.17,18.22,4.23,10.7.05,18-4.3,21.67-9.76a19.66,19.66,0,0,0-3.13,10.46,31.92,31.92,0,0,0,3.14,13.86,50,50,0,0,0,4.48,7.81,65.54,65.54,0,0,0,6.82,7.84c1.34,1.31,2.77,2.63,4.31,4,.77.66,1.56,1.31,2.39,2s1.69,1.24,2.57,1.86a116.43,116.43,0,0,0,11.93,7.24c2.2,1.21,4.4,2.13,6.51,3.07s4.2,1.75,6.21,2.49,4,1.41,5.87,2a54.66,54.66,0,0,0,5.55,1.37A68.12,68.12,0,0,0,284.75,628a38.73,38.73,0,0,0,8.62-.42c10.57-1.8,17.17-7.49,20.23-15.43,2.2-5.74,3-16.15,5.9-26.14s8-19.61,17.75-24.12c-16.76-16.7-33.31-27.39-47.57-32a53.3,53.3,0,0,0-5.24-1.42c-1.71-.36-3.4-.59-5-.81a30.56,30.56,0,0,0-9,.12c-5.56,1-10.15,3.73-13,8.36-2.66,4.33-4.09,10.48-5.41,16.67s-2.55,12.45-5.11,16.81c-2.19,3.75-5.44,7.66-11.74,3.95-4.64-2.94-6.45-8.9-6-16.14s3.27-15.88,7.4-24.16a101.71,101.71,0,0,1,15.42-22.66c5.81-6.33,11.84-10.91,17.43-12.5-.71-1.17-1.44-2.31-2.17-3.44s-1.42-2.28-2.13-3.37c-1.44-2.19-2.91-4.25-4.41-6.2s-3-3.85-4.46-5.63-3-3.46-4.55-5-3-3.11-4.55-4.49-3.07-2.7-4.62-3.88-3.07-2.33-4.6-3.35a52,52,0,0,0-4.6-2.77,53.07,53.07,0,0,0-9.05-3.8,32.47,32.47,0,0,0-8.67-1.31,19.88,19.88,0,0,0-14.53,5.42c-7.46,7.2-13.05,16.51-18,25.7-2.51,4.6-4.83,9.1-7.24,13.21A56.2,56.2,0,0,1,168.1,510a10.2,10.2,0,0,1-5.63,3.34,6.77,6.77,0,0,1-3.64-.46,12.88,12.88,0,0,1-4.07-3,12.24,12.24,0,0,1-3.16-8.33,22.18,22.18,0,0,1,.5-5.47,41.6,41.6,0,0,1,1.75-6.08c3.07-8.42,9.05-17.84,16.4-26.61a144.22,144.22,0,0,1,24.36-23c8.24-6,16.13-10.1,21.95-10.53-2.69-10.11-5.92-18.91-9.94-26.19a64.82,64.82,0,0,0-6.34-10,48.68,48.68,0,0,0-7.06-7.91,38.66,38.66,0,0,0-7.59-5.72c-.66-.37-1.32-.72-2-1s-1.3-.65-2-.93a27.51,27.51,0,0,0-3.95-1.35,20.49,20.49,0,0,0-15.4,1.83c-11,6.25-22.25,16-32.43,25.7s-19.37,19.18-27,23.82c-3.71,2.27-8.83,3.44-12.67-3.09a14.13,14.13,0,0,1-1.67-4.36,15.21,15.21,0,0,1,0-4.62,24.15,24.15,0,0,1,3.78-9.51c4-6.34,10.91-12.6,18.64-18a136.81,136.81,0,0,1,24.09-13.4c7.71-3.29,14.46-5.22,18.5-5.07q-.12-4.23-.48-8.19c-.12-1.32-.27-2.61-.41-3.9s-.28-2.58-.45-3.84c-.33-2.51-.75-4.93-1.23-7.27s-.94-4.67-1.51-6.87a82,82,0,0,0-9.19-22.56c-3.74-6.15-8.23-10.73-13-13.44a18.25,18.25,0,0,0-15.2-1.63c-4.79,1.63-12.77,7.47-22.23,14s-20.41,13.88-31.28,17.84c-4.1,1.5-9.6.91-12-6a15.42,15.42,0,0,1,.81-12.51c1.91-3.77,5.34-7.06,9.78-9.69,8.87-5.28,21.67-7.87,34.62-6.81-.73-14-4-25.06-8.87-32.21s-11.54-10.37-18.78-8.42a60.53,60.53,0,0,0-40.43,35,73.81,73.81,0,0,0-4.4,14.19,82.21,82.21,0,0,0-1.51,15.88A100.69,100.69,0,0,0,24.65,359a139.39,139.39,0,0,0,6.84,15,103.48,103.48,0,0,0,7.45,11.9,80.65,80.65,0,0,0,7.67,8.95,54.25,54.25,0,0,0,7.64,6.23,31.25,31.25,0,0,0,13.88,5.48A18.54,18.54,0,0,0,78.9,404.82Z" transform="translate(212.37)"></path><path class="cls-4" d="M439.54,47.23S420.62,8.4,363.43,8.4c-60.2,0-78.92,28.31-108.28,28.31-16.07,0-24.24,5.41-24.24,18.43,0,17,16,33.3,30.88,33.3" transform="translate(212.37)"></path><path class="cls-4" d="M425,11C412.88-2.2,397.45,6.68,395.67,21.27" transform="translate(212.37)"></path><path class="cls-4" d="M268.88,82.74c-13.27,8.76-20,25.81-20,42.9,0,27,19.9,47,46.94,47,24.62,0,47.11,10.66,55.14,20.3" transform="translate(212.37)"></path><path class="cls-4" d="M249.25,48.42c-12,0-5.17,23.85,7.48,23.85" transform="translate(212.37)"></path><path class="cls-4" d="M524.83,559.89c3.51,5.61,8.23,13.24,8.23,29.8,0,53.07-85.44,97-85.44,97,38.36,0,49.52-13.92,78.59-13.92,33.68,0,45,19.55,36,28.92-19.87,20.64-162.1,0-162.1,0,26.7-29.76,33.55-59.82,24.57-86.32" transform="translate(212.37)"></path><path class="cls-4" d="M296.45,347.83c4.21-16,6.65-31.52,6.24-46.29" transform="translate(212.37)"></path><path class="cls-5" d="M469.57,92.13c4.08,7.6,7.7,14,7.7,21.23,0,16.43-21.5,40.4-21.5,58,0,30,135.32,148.14,135.32,263.89,0,167.11-250.81,182.68-250.81,237.45,0,9.9,2.62,14.94,4.83,24.76-25.3,9.66-57.15,39.06-109.52,39.06-23.3,0-32.82-12.59-32.82-21.24,0-11.83,18.47-24.66,49.41-24.66,19.13,0,39-.91,39-.91-6.8-26.45-64.72-63.23-64.72-117.62,0-60.28,33.12-123.28,55.7-181.61" transform="translate(212.37)"></path><path class="cls-4" d="M352,104.92c27.35,28,46.08,27.16,71.28,27.16" transform="translate(212.37)"></path><path class="cls-4" d="M353.41,91.83c-8.77-.66-18.07-8.33-22.94-19.88-6.21-14.72-2.88-30.18,7.44-34.53s23.71,4,29.92,18.77c.32.78.62,1.56.9,2.33" transform="translate(212.37)"></path><circle class="cls-3" cx="560.76" cy="73.01" r="10.28"></circle><path class="cls-4" d="M425,11C412.88-2.2,397.45,6.68,395.67,21.27" transform="translate(212.37)"></path><circle class="cls-3" cx="560.76" cy="73.01" r="10.28"></circle><path class="cls-4" d="M353.41,91.83c-8.77-.66-18.07-8.33-22.94-19.88-6.21-14.72-2.88-30.18,7.44-34.53s23.71,4,29.92,18.77c.32.78.62,1.56.9,2.33" transform="translate(212.37)"></path><path class="cls-1" d="M357.22,21.19C341.89,12.2,322.65,16,308.61,38" transform="translate(212.37)"></path><path class="cls-4" d="M359.43,243.39c-23.63,18.62-65.25,67.22-72.26,77.25,0,22.6,25.47,59,79.19,79,4.38,19.14,7.39,77.64-11.75,77.64s-28.76-50.57-7.11-50.57c16.68,0,10.39,30.89,10.39,30.89" transform="translate(212.37)"></path><path class="cls-4" d="M347.33,474.67c-8,3.69-29.61,5.33-31.53-19.27s12.31-35.23,24.19-25.82" transform="translate(212.37)"></path><path class="cls-4" d="M322.66,409.37c-7.84,7.83-12.83,9.37-21.84,9.84-10.1.53-23.85,4.55-23.85,16.23,0,11.13,11.48,17.23,21.6,13.4" transform="translate(212.37)"></path><path class="cls-4" d="M318.73,432.22c-9.52-2.5-21,3.08-21,22.46S316.3,485.25,330,476.19" transform="translate(212.37)"></path><path class="cls-4" d="M295.82,172.59c-49.88,0-91.66,141.4-91.66,141.4s68.53,98.37,141,98.37" transform="translate(212.37)"></path><path class="cls-4" d="M443.62,97.78c-34.84,41.56-91.63,7.14-91.63,7.14,0-17.79,11.17-83,108.45-77.54,0,0,11.33,24,11.33,43.88,0,21.39-5.8,35.86-12,35.86S443.62,97.78,443.62,97.78Z" transform="translate(212.37)"></path><path class="cls-3" d="M460.44,27.38s-1,19.3-15.52,34.16c-11.85-6.3-28.49-17.71-36.59-28.89C420.75,29,442,26.09,460.44,27.38Z" transform="translate(212.37)"></path><polyline class="cls-4" points="667.14 105.71 662.4 144.76 636.99 150.41 635.65 113.42"></polyline><line class="cls-4" x1="613.39" y1="87.1" x2="613.39" y2="87.1"></line><line class="cls-4" x1="604.4" y1="68.14" x2="604.4" y2="68.14"></line><line class="cls-4" x1="632.26" y1="72.56" x2="632.26" y2="72.56"></line><g class="cls-6"><path class="cls-7" d="M74.08,618.81C-69,650.09-152.85,526.89-207.87,313.45" transform="translate(212.37)"></path></g><path class="cls-1" d="M606.19,122.57c0,50.24-27.43,98.46-38.31,126.17-27.71,7.59-57.94,3.54-57.94,3.54" transform="translate(212.37)"></path><path class="cls-1" d="M580.61,116.71c0,30.79-42.42,64.69-42.42,64.69C506.31,178.54,496.85,164,468.56,164H456.82" transform="translate(212.37)"></path><path class="cls-1" d="M603.19,122.57c21.59,0,37.61-18.21,37.61-42.63,0-14-9.72-28.89-24.74-28.89" transform="translate(212.37)"></path><path class="cls-1" d="M564.41,93.58c0,11.79,9.11,23.13,25.75,25.27" transform="translate(212.37)"></path><ellipse class="cls-8" cx="786.42" cy="91.36" rx="23.32" ry="9.79"></ellipse><polyline class="cls-8" points="793.92 208.75 793.92 171.39 822.31 171.39 822.31 208.75"></polyline><path class="cls-8" d="M623.18,147.19c0-5.64-12.29-10.22-27.44-10.22s-27.44,4.58-27.44,10.22v24.09l54.88,0Z" transform="translate(212.37)"></path><polyline class="cls-8" points="684.39 265.88 657.97 239.46 678.05 219.39 704.47 245.81"></polyline><polyline class="cls-8" points="911.76 245.81 938.17 219.39 958.25 239.46 931.83 265.88"></polyline><circle class="cls-1" cx="808.11" cy="369.53" r="161.35"></circle><circle class="cls-8" cx="808.11" cy="369.53" r="161.35"></circle><circle class="cls-1" cx="808.11" cy="369.53" r="136.54"></circle><path class="cls-9" d="M595.74,369.53l1-116.1a116,116,0,0,1,74.76,28.16Z" transform="translate(212.37)"></path><path class="cls-1" d="M581.53,191.09a65.78,65.78,0,1,1,28.39,0" transform="translate(212.37)"></path><circle class="cls-8" cx="808.12" cy="369.52" r="16.9"></circle><line class="cls-1" x1="884.67" y1="281.26" x2="819.21" y2="356.73"></line><ellipse class="cls-8" cx="630.49" cy="69.68" rx="23.32" ry="13.41" transform="translate(703.39 688.49) rotate(-83.61)"></ellipse><ellipse class="cls-8" cx="604.32" cy="63.73" rx="23.32" ry="13.41" transform="translate(686.05 657.2) rotate(-83.61)"></ellipse><ellipse class="cls-8" cx="577.48" cy="63.75" rx="23.32" ry="13.41" transform="translate(662.2 630.54) rotate(-83.61)"></ellipse></g></g></svg>