<svg width="810" height="710" viewBox="0 0 810 710" fill="none" xmlns="http://www.w3.org/2000/svg">
<g clip-path="url(#clip0)">
<path d="M456.213 1048.37C259.015 1047.72 198.914 470.581 -16.4771 467.17C-78.203 466.195 -146.751 495.109 -146.751 630.256C-146.751 873.099 156.193 1167.27 456.213 1048.37Z" fill="#0028F2" stroke="white" stroke-width="6.49746" stroke-miterlimit="10" stroke-linecap="round" stroke-linejoin="round"/>
<path d="M326.264 364.509C245.208 364.509 177.31 594.194 177.31 594.194C177.31 594.194 231.076 671.351 303.361 718.458C266.65 812.671 213.533 914.519 213.533 1011.82C213.533 1100.18 307.584 1159.96 318.63 1202.84C318.63 1202.84 286.305 1204.31 255.279 1204.31C205.086 1204.31 175.036 1225.1 175.036 1244.43C175.036 1258.4 190.467 1278.86 228.315 1278.86C313.432 1278.86 365.086 1231.11 406.183 1215.35C402.609 1199.43 398.386 1191.15 398.386 1175.07C398.386 1138.03 468.721 1112.2 550.914 1075.01L527.685 1063.15L535.482 1083.62C550.102 1126.66 538.893 1175.55 495.523 1223.8C495.523 1223.8 726.508 1257.26 758.833 1223.8C773.452 1208.53 755.097 1176.85 700.355 1176.85C653.086 1176.85 635.056 1199.43 572.68 1199.43C572.68 1199.43 711.401 1128.12 711.401 1041.87C711.401 1014.9 703.767 1002.56 698.081 993.463L684.599 972.184L690.122 997.849C755.421 949.767 805.777 884.793 805.777 789.28C805.777 673.625 722.447 556.346 658.447 472.042L633.107 444.59L589.411 374.417C589.411 374.417 585.513 365.808 586 357.849C586.65 346.641 595.421 328.61 595.421 328.61C605.817 306.844 620.762 284.103 620.762 266.559C620.762 255.026 615.076 244.63 608.579 232.61C610.69 223.514 611.828 212.468 611.828 199.798C611.828 167.473 593.472 128.488 593.472 128.488C588.924 128.163 584.376 128.001 579.665 128.001C563.746 127.839 549.289 128.813 536.295 130.762C517.289 114.031 485.452 96.001 435.909 96.001C338.122 96.001 307.746 141.971 259.99 141.971C233.838 141.971 220.68 150.742 220.68 171.859C220.68 199.473 246.67 225.95 270.873 225.95H272.985C257.716 241.219 249.756 264.61 249.756 288.001C250.081 332.184 282.406 364.509 326.264 364.509C332.762 364.509 339.097 364.996 345.269 365.808L326.264 364.509Z" fill="white"/>
<path d="M707.99 548.225C732.193 413.728 657.797 339.494 592.172 339.494H523.787V557.971L707.99 548.225Z" fill="white"/>
<path d="M-25.8982 740.55C-35.3195 745.423 -43.6037 757.118 -45.0657 774.824C-45.3905 779.21 -45.553 784.083 -44.9032 789.281C-44.2535 794.479 -43.1164 799.839 -41.4921 805.687C-39.8677 811.535 -37.4312 817.545 -34.3449 823.88C-32.8829 827.129 -31.0961 830.377 -29.3093 833.626C-27.3601 836.875 -25.2484 840.286 -22.9743 843.697C-4.45654 870.824 16.0105 885.118 33.2287 890.316C41.8379 892.915 49.6348 893.403 56.1323 892.428C62.7922 891.291 68.315 888.692 72.3759 885.118C64.4165 892.266 58.8937 904.936 61.3303 922.154C62.6298 930.601 66.0409 940.347 72.0511 950.743C78.3861 960.976 87.1577 972.022 99.6653 982.905C102.752 985.667 105.838 988.266 108.924 990.54C112.01 992.814 115.097 994.926 118.021 996.712C124.031 1000.45 129.716 1003.7 135.239 1005.97C146.285 1010.52 156.193 1012.79 164.802 1012.79C182.183 1012.96 194.041 1005.81 200.051 996.875C197.127 1001.26 195.178 1007.11 195.016 1013.93C194.853 1020.59 196.315 1028.22 200.051 1036.51C201.838 1040.57 204.274 1044.79 207.361 1049.18C210.447 1053.4 214.183 1057.63 218.406 1061.85C220.518 1063.96 222.955 1066.07 225.391 1068.35C226.691 1069.48 227.99 1070.46 229.29 1071.6C230.589 1072.57 232.051 1073.54 233.513 1074.68C239.198 1078.74 245.696 1082.64 252.843 1086.38C256.417 1088.33 259.99 1089.79 263.401 1091.41C266.812 1092.87 270.224 1094.17 273.472 1095.47C276.721 1096.61 279.97 1097.75 283.056 1098.72C286.142 1099.7 289.229 1100.35 292.153 1101C298 1102.13 303.361 1102.95 308.559 1103.11C313.594 1103.27 318.305 1103.27 322.528 1102.46C339.746 1099.53 350.467 1090.28 355.34 1077.44C358.914 1068.18 360.214 1051.29 364.924 1035.05C369.635 1018.8 377.919 1003.21 393.838 995.9C366.548 968.773 339.746 951.393 316.518 943.92C313.594 942.946 310.833 942.296 308.071 941.646C305.31 940.997 302.549 940.672 299.95 940.347C294.752 939.697 289.878 939.697 285.33 940.509C276.234 942.134 268.924 946.52 264.214 954.154C259.828 961.139 257.554 971.21 255.442 981.281C253.33 991.352 251.219 1001.42 247.158 1008.57C243.584 1014.74 238.386 1021.08 228.153 1014.91C220.681 1010.19 217.757 1000.45 218.406 988.753C219.056 977.058 223.767 962.926 230.427 949.443C237.087 935.961 246.021 922.966 255.442 912.57C264.863 902.337 274.609 894.865 283.706 892.266C282.569 890.316 281.432 888.53 280.132 886.743C278.995 884.794 277.858 883.007 276.721 881.22C274.447 877.646 272.01 874.235 269.574 871.149C267.137 868.063 264.701 864.814 262.264 862.052C259.828 859.129 257.391 856.367 254.955 853.931C252.356 851.494 250.082 848.895 247.483 846.621C245.046 844.347 242.447 842.235 240.01 840.286C237.411 838.337 234.975 836.55 232.538 834.763C230.102 833.139 227.503 831.514 225.066 830.215C220.031 827.616 215.158 825.504 210.447 824.042C205.574 822.58 200.863 821.931 196.315 821.931C187.381 821.768 179.097 824.53 172.762 830.702C160.579 842.398 151.483 857.504 143.523 872.448C139.462 879.92 135.726 887.23 131.828 893.89C127.929 900.55 123.868 906.56 119.158 911.433C116.721 914.032 113.635 916.306 110.061 916.794C108.274 917.118 106.325 916.956 104.214 915.981C102.102 915.169 99.9902 913.545 97.5536 911.108C94.3049 907.697 92.6805 903.149 92.3556 897.626C92.1932 894.865 92.5181 891.941 93.1678 888.692C93.8176 885.606 94.7922 882.195 95.9292 878.783C100.965 865.139 110.711 849.87 122.569 835.575C134.589 821.281 148.721 807.961 162.203 798.215C175.523 788.469 188.356 781.809 197.777 781.159C193.391 764.753 188.193 750.459 181.696 738.601C178.609 732.591 175.198 727.23 171.462 722.357C167.889 717.484 163.99 713.098 159.929 709.525C156.031 705.788 151.807 702.702 147.584 700.266C146.447 699.616 145.472 699.129 144.335 698.641C143.361 698.154 142.224 697.667 141.087 697.179C138.975 696.205 136.863 695.555 134.589 695.068C125.98 692.956 117.371 693.606 109.574 697.992C91.7059 708.063 73.3506 723.981 56.9445 739.738C40.376 755.332 25.4318 770.926 13.0866 778.398C7.07646 782.134 -1.20781 783.92 -7.54283 773.362C-8.84232 771.088 -9.81694 768.651 -10.3042 766.215C-10.7916 763.778 -10.7916 761.179 -10.4667 758.743C-9.81693 753.707 -7.54283 748.509 -4.2941 743.311C2.20336 733.078 13.4115 722.844 25.9191 714.073C38.4267 705.301 52.5587 697.667 65.0663 692.306C77.5739 686.946 88.6196 683.86 95.1171 684.022C94.9546 679.474 94.7922 675.088 94.3049 670.702C94.1424 668.591 93.8176 666.479 93.6551 664.367C93.4927 662.255 93.1678 660.144 93.0054 658.195C92.5181 654.134 91.7059 650.235 91.0562 646.337C90.4064 642.438 89.5942 638.702 88.6196 635.129C84.8836 620.834 79.848 608.489 73.6754 598.418C67.6653 588.509 60.3557 581.037 52.5587 576.651C44.7617 572.266 36.315 571.129 27.8683 574.052C20.0714 576.651 7.07646 586.235 -8.19257 596.794C-23.624 607.514 -41.3296 619.372 -59.0352 625.707C-65.6951 628.144 -74.6291 627.169 -78.5276 615.961C-81.1266 608.651 -80.3144 601.829 -77.2281 595.657C-74.1418 589.484 -68.619 584.124 -61.3093 579.9C-46.8525 571.291 -26.0606 567.068 -5.10629 568.855C-6.24334 546.113 -11.6037 528.083 -19.5631 516.55C-27.5225 505.017 -38.2433 499.657 -50.1012 502.905C-79.8271 510.865 -103.218 531.007 -115.726 559.758C-118.812 566.905 -121.248 574.702 -122.873 582.824C-124.497 590.946 -125.309 599.555 -125.309 608.651C-125.309 626.682 -121.736 646.174 -114.101 666.154C-110.528 675.25 -106.954 683.372 -103.056 690.519C-98.9946 697.829 -95.0961 704.164 -90.8728 709.849C-86.6494 715.535 -82.5885 720.245 -78.3652 724.469C-74.1418 728.53 -69.9185 731.941 -66.02 734.54C-58.0606 739.9 -50.2636 742.662 -43.4413 743.474C-36.619 744.286 -30.7713 742.986 -25.8982 740.55Z" fill="white"/>
<path d="M558.548 166.825C558.548 166.825 528.01 104.287 435.746 104.287C338.609 104.287 308.396 149.932 261.127 149.932C235.137 149.932 221.98 158.703 221.98 179.658C221.98 207.109 247.645 233.424 271.848 233.424" stroke="#0028F2" stroke-width="14.6193" stroke-miterlimit="10" stroke-linecap="round" stroke-linejoin="round"/>
<path d="M428.599 131.251C402.771 118.418 372.071 126.54 351.604 163.738" stroke="#0028F2" stroke-width="14.6193" stroke-miterlimit="10" stroke-linecap="round" stroke-linejoin="round"/>
<path d="M533.208 99.7383C507.381 86.7434 489.188 108.835 494.711 131.901" stroke="#0028F2" stroke-width="14.6193" stroke-miterlimit="10" stroke-linecap="round" stroke-linejoin="round"/>
<path d="M565.208 248.367C509.005 315.453 417.391 259.9 417.391 259.9C417.391 231.149 435.421 126.052 592.335 134.824C592.335 134.824 610.528 173.484 610.528 205.646C610.528 240.083 601.106 263.474 591.198 263.474C581.289 263.474 565.208 248.367 565.208 248.367Z" stroke="#0028F2" stroke-width="14.6193" stroke-miterlimit="10" stroke-linecap="round" stroke-linejoin="round"/>
<path d="M592.335 134.824C592.335 134.824 590.71 166.012 567.319 189.89C548.152 179.657 521.35 161.301 508.355 143.271C528.335 137.423 562.609 132.713 592.335 134.824Z" fill="#0028F2" stroke="#0028F2" stroke-width="14.6193" stroke-miterlimit="10" stroke-linecap="round" stroke-linejoin="round"/>
<path d="M583.239 261.199L575.604 324.225L534.508 333.321L532.396 273.544" stroke="#0028F2" stroke-width="14.6193" stroke-miterlimit="10" stroke-linecap="round" stroke-linejoin="round"/>
<path d="M429.411 483.251C391.239 513.302 324.152 591.596 312.944 607.84C312.944 644.226 354.041 703.028 440.619 735.19C447.604 766.053 452.477 860.429 421.614 860.429C390.751 860.429 375.157 778.885 410.081 778.885C437.046 778.885 426.812 828.754 426.812 828.754" stroke="#0028F2" stroke-width="14.6193" stroke-miterlimit="10" stroke-linecap="round" stroke-linejoin="round"/>
<path d="M251.706 168.774C232.376 168.774 243.421 207.272 263.726 207.272" stroke="#0028F2" stroke-width="14.6193" stroke-miterlimit="10" stroke-linecap="round" stroke-linejoin="round"/>
<path d="M327.889 651.697C334.711 625.87 338.609 600.855 337.96 576.977" stroke="#0028F2" stroke-width="14.6193" stroke-miterlimit="10" stroke-linecap="round" stroke-linejoin="round"/>
<path d="M607.116 239.271C613.776 251.453 619.624 261.849 619.624 273.545C619.624 300.022 584.863 338.682 584.863 367.108C584.863 415.352 803.177 606.052 803.177 792.692C803.177 1062.17 398.71 1087.35 398.71 1175.72C398.71 1191.64 402.934 1199.76 406.507 1215.68C365.736 1231.27 314.406 1278.7 229.939 1278.7C192.416 1278.7 176.984 1258.4 176.984 1244.43C176.984 1225.42 206.71 1204.63 256.578 1204.63C287.441 1204.63 319.441 1203.17 319.441 1203.17C308.558 1160.45 214.995 1101.16 214.995 1013.44C214.995 916.306 268.436 814.621 304.822 720.57" stroke="#0028F2" stroke-width="14.6193" stroke-miterlimit="10" stroke-linecap="round" stroke-linejoin="round"/>
<path d="M427.949 162.113L384.416 187.128" stroke="#0028F2" stroke-width="14.6193" stroke-miterlimit="10" stroke-linecap="round" stroke-linejoin="round"/>
<path d="M417.391 259.9C461.573 305.058 491.624 303.758 532.396 303.758" stroke="#0028F2" stroke-width="14.6193" stroke-miterlimit="10" stroke-linecap="round" stroke-linejoin="round"/>
<path d="M592.172 339.494C657.797 339.494 732.193 413.728 707.99 548.225" stroke="#0028F2" stroke-width="14.6193" stroke-miterlimit="10" stroke-linecap="round" stroke-linejoin="round"/>
<path d="M563.746 88.6922C525.736 39.474 466.285 7.79883 399.198 7.79883C284.356 7.79883 191.442 100.875 191.442 215.555C191.442 279.23 220.193 336.408 265.351 374.418L265.675 374.256C292.153 354.438 317.33 350.053 334.711 350.053C371.259 350.053 396.437 365.809 424.538 365.809C438.021 365.809 450.691 354.763 450.691 337.87C450.691 297.586 347.219 252.753 347.219 177.383C347.219 95.5146 415.442 69.5247 470.995 69.5247C524.437 69.5247 563.746 87.7176 563.746 87.7176V88.6922Z" fill="white" stroke="#0028F2" stroke-width="15.5752" stroke-miterlimit="10" stroke-linecap="round" stroke-linejoin="round"/>
<path d="M279.645 287.353C302.073 287.353 320.254 269.172 320.254 246.744C320.254 224.316 302.073 206.135 279.645 206.135C257.217 206.135 239.036 224.316 239.036 246.744C239.036 269.172 257.217 287.353 279.645 287.353Z" fill="#0028F2" stroke="#0028F2" stroke-width="15.5752" stroke-miterlimit="10" stroke-linecap="round" stroke-linejoin="round"/>
<path d="M563.746 88.6929C580.477 95.8401 555.95 118.744 555.95 135.475C534.021 137.749 534.021 137.749 534.021 137.749C534.021 137.749 485.127 82.8452 366.711 113.221C394.975 73.099 478.305 52.3071 563.746 88.6929Z" fill="#0028F2" stroke="#0028F2" stroke-width="15.5752" stroke-miterlimit="10" stroke-linecap="round" stroke-linejoin="round"/>
<path d="M406.345 755.656C289.554 755.656 179.097 596.955 179.097 596.955C179.097 596.955 218.894 368.895 332.274 368.895C371.909 368.895 402.934 386.113 415.929 401.707" stroke="#0028F2" stroke-width="14.6193" stroke-miterlimit="10" stroke-linecap="round" stroke-linejoin="round"/>
<circle cx="529.137" cy="209.914" r="7.19884" fill="#0028F2"/>
<circle cx="497.724" cy="233.472" r="7.19884" fill="#0028F2"/>
<circle cx="484.635" cy="202.06" r="7.19884" fill="#0028F2"/>
</g>
<defs>
<clipPath id="clip0">
<rect width="960" height="711.472" fill="white" transform="translate(-150 0.00195312)"/>
</clipPath>
</defs>
</svg>
