<svg width="110" height="46" viewBox="0 0 110 46" fill="none" xmlns="http://www.w3.org/2000/svg">
<path fill-rule="evenodd" clip-rule="evenodd" d="M109.174 23.6599C109.174 15.8964 105.414 9.77051 98.2267 9.77051C91.0091 9.77051 86.6421 15.8964 86.6421 23.5992C86.6421 32.7274 91.7975 37.337 99.1971 37.337C102.806 37.337 105.535 36.5182 107.597 35.3658V29.3006C105.535 30.3317 103.17 30.9685 100.168 30.9685C97.2259 30.9685 94.6179 29.9374 94.2843 26.3589H109.114C109.114 25.9647 109.174 24.3877 109.174 23.6599ZM94.1933 20.7789C94.1933 17.3521 96.2858 15.9267 98.1964 15.9267C100.046 15.9267 102.017 17.3521 102.017 20.7789H94.1933Z" fill="#0029F2"/>
<path fill-rule="evenodd" clip-rule="evenodd" d="M74.9362 9.77051C71.9642 9.77051 70.0537 11.1655 68.9923 12.136L68.598 10.2557H61.9263V45.6161L69.5078 44.0088L69.5381 35.4265C70.6299 36.2149 72.2372 37.337 74.9059 37.337C80.3343 37.337 85.2774 32.97 85.2774 23.3566C85.2471 14.562 80.2433 9.77051 74.9362 9.77051ZM73.1166 30.6652C71.3274 30.6652 70.266 30.0284 69.5381 29.2399L69.5078 17.9889C70.2963 17.1094 71.388 16.5029 73.1166 16.5029C75.8763 16.5029 77.7869 19.5962 77.7869 23.5689C77.7869 27.6326 75.9066 30.6652 73.1166 30.6652Z" fill="#0029F2"/>
<path fill-rule="evenodd" clip-rule="evenodd" d="M51.4937 7.98133L59.1055 6.34371V0.1875L51.4937 1.79479V7.98133Z" fill="#0029F2"/>
<path d="M59.1055 10.2861H51.4937V36.8216H59.1055V10.2861Z" fill="#0029F2"/>
<path fill-rule="evenodd" clip-rule="evenodd" d="M43.336 12.5303L42.8508 10.2861H36.3003V36.8215H43.8818V18.8381C45.6711 16.503 48.7037 16.9276 49.6438 17.2611V10.2861C48.6734 9.92221 45.1252 9.25503 43.336 12.5303Z" fill="#0029F2"/>
<path fill-rule="evenodd" clip-rule="evenodd" d="M28.1731 3.70532L20.7735 5.28228L20.7432 29.5736C20.7432 34.0618 24.1094 37.3674 28.5976 37.3674C31.0844 37.3674 32.904 36.9125 33.9047 36.3666V30.2104C32.9343 30.6046 28.1428 31.9996 28.1428 27.5114V16.7456H33.9047V10.2861H28.1428L28.1731 3.70532Z" fill="#0029F2"/>
<path fill-rule="evenodd" clip-rule="evenodd" d="M7.67252 17.9889C7.67252 16.8062 8.64296 16.3513 10.2502 16.3513C12.555 16.3513 15.4664 17.0488 17.7711 18.2922V11.1655C15.2541 10.1647 12.7673 9.77051 10.2502 9.77051C4.09404 9.77051 0 12.9851 0 18.3528C0 26.7228 11.5239 25.3885 11.5239 28.9973C11.5239 30.3923 10.3109 30.8472 8.61264 30.8472C6.09556 30.8472 2.88099 29.8161 0.333588 28.4211V35.6387C3.15392 36.8518 6.00458 37.3673 8.61264 37.3673C14.9205 37.3673 19.2571 34.2437 19.2571 28.8154C19.2268 19.7781 7.67252 21.3854 7.67252 17.9889Z" fill="#0029F2"/>
</svg>
