<svg width="65" height="64" viewBox="0 0 65 64" fill="none" xmlns="http://www.w3.org/2000/svg">
<g clip-path="url(#clip0_2_438)">
<path d="M32.1747 63.8779C49.7805 63.8779 64.0526 49.6058 64.0526 31.9999C64.0526 14.3942 49.7805 0.121951 32.1747 0.121951C14.5689 0.121951 0.296661 14.3942 0.296661 31.9999C0.296661 49.6058 14.5689 63.8779 32.1747 63.8779Z" fill="#0028F2"/>
<path d="M15.5562 31.9077L20.9964 26.454C21.1768 26.2702 21.2774 26.0268 21.2774 25.7687C21.2774 25.2308 20.8401 24.7939 20.3022 24.7939C20.0402 24.7939 19.7945 24.8966 19.6093 25.0842C19.6088 25.0852 14.1739 30.5169 14.1739 30.5169L8.71428 25.076C8.5298 24.8941 8.28534 24.7939 8.02614 24.7939C7.48886 24.7939 7.05147 25.2306 7.05147 25.768C7.05147 26.0301 7.15612 26.2761 7.34397 26.4614L12.7834 31.9001L7.34679 37.347C7.15569 37.5352 7.05147 37.7817 7.05147 38.045C7.05147 38.5828 7.48886 39.0191 8.02614 39.0191C8.28578 39.0191 8.53045 38.9184 8.71428 38.7344L14.1655 33.2906L19.596 38.7146C19.7886 38.9137 20.037 39.0198 20.3022 39.0198C20.8396 39.0198 21.2769 38.5828 21.2769 38.045C21.2769 37.7855 21.1763 37.5417 20.9934 37.3578L15.5562 31.9077Z" fill="white"/>
<path d="M47.8975 31.9062C47.8975 32.883 48.6917 33.6775 49.6697 33.6775C50.6453 33.6775 51.4398 32.883 51.4398 31.9062C51.4398 30.9293 50.6453 30.1349 49.6697 30.1349C48.6917 30.1349 47.8975 30.9293 47.8975 31.9062Z" fill="white"/>
<path d="M44.5381 31.9069C44.5381 29.0785 46.839 26.7771 49.6678 26.7771C52.4952 26.7771 54.7967 29.0785 54.7967 31.9069C54.7967 34.7347 52.4952 37.0352 49.6678 37.0352C46.839 37.0352 44.5381 34.7347 44.5381 31.9069V31.9069ZM42.5202 31.9069C42.5202 35.8475 45.7266 39.0535 49.6678 39.0535C53.6089 39.0535 56.817 35.8475 56.817 31.9069C56.817 27.9658 53.6089 24.759 49.6678 24.759C45.7266 24.759 42.5202 27.9658 42.5202 31.9069Z" fill="white"/>
<path d="M42.0128 24.8812L41.713 24.8804C40.8127 24.8804 39.9444 25.1643 39.2192 25.7231C39.1237 25.2859 38.7328 24.9568 38.2672 24.9568C37.7313 24.9568 37.302 25.3862 37.3007 25.9231C37.3007 25.9251 37.3039 37.9615 37.3039 37.9615C37.3053 38.4974 37.7425 38.9331 38.2787 38.9331C38.8148 38.9331 39.2518 38.4974 39.2533 37.9603C39.2533 37.9579 39.2537 30.5582 39.2537 30.5582C39.2537 28.0911 39.4793 27.0948 41.5926 26.8307C41.7879 26.8064 42.0004 26.8102 42.0012 26.8102C42.5795 26.7903 42.9904 26.393 42.9904 25.8559C42.9904 25.3185 42.5518 24.8812 42.0128 24.8812" fill="white"/>
<path d="M23.2966 30.7303C23.2966 30.7037 23.2987 30.6759 23.3 30.6485C23.8659 28.4114 25.8919 26.756 28.3048 26.756C30.7468 26.756 32.7914 28.4521 33.3283 30.7303H23.2966ZM35.3244 30.5463C34.9044 28.5576 33.8156 26.9241 32.1577 25.875C29.7342 24.3364 26.5339 24.4215 24.1931 26.0861C22.2836 27.4445 21.1814 29.6666 21.1814 31.9557C21.1814 32.5296 21.2506 33.1089 21.3946 33.6792C22.1156 36.5155 24.5539 38.6625 27.4609 39.0184C28.3235 39.1228 29.1632 39.0728 30.0326 38.8477C30.7798 38.6659 31.5027 38.3629 32.1688 37.936C32.8602 37.4916 33.4379 36.9055 33.9973 36.2039C34.0085 36.191 34.0199 36.1796 34.0312 36.166C34.4195 35.6845 34.3475 34.9997 33.9208 34.6728C33.561 34.397 32.9569 34.2852 32.4815 34.894C32.3794 35.0395 32.2654 35.1893 32.1399 35.3391C31.7619 35.7567 31.293 36.1614 30.7311 36.4752C30.016 36.8572 29.2012 37.0755 28.335 37.0804C25.4998 37.0488 23.9827 35.0698 23.443 33.6572C23.3488 33.3934 23.2761 33.1198 23.2254 32.838C23.2188 32.7853 23.214 32.7345 23.212 32.6876C23.7982 32.6876 33.3862 32.686 33.3862 32.686C34.7811 32.6567 35.5318 31.6722 35.3244 30.5463Z" fill="white"/>
</g>
<defs>
<clipPath id="clip0_2_438">
<rect width="64" height="64" fill="white" transform="translate(0.174652)"/>
</clipPath>
</defs>
</svg>
